<svg width="697" height="931" viewBox="0 0 697 931" fill="none" xmlns="http://www.w3.org/2000/svg">
<g clip-path="url(#clip0)">
<path fill-rule="evenodd" clip-rule="evenodd" d="M333.284 0.765024C447.46 -6.45602 563.576 37.5557 633.688 127.989C702.818 217.155 711.124 338.414 678.902 446.552C649.211 546.195 568.998 617.662 474.73 661.459C382.388 704.361 277 719.284 184.779 676.123C91.3748 632.407 27.6166 543.226 6.40619 442.273C-14.3517 343.474 16.9469 244.326 77.0126 163.196C140.336 77.6663 227.101 7.48059 333.284 0.765024Z" fill="#EFF2F8"/>
<g clip-path="url(#clip1)">
<path fill-rule="evenodd" clip-rule="evenodd" d="M361.32 861.64L370.03 890.32L404.89 891.57L407.22 848.46L361.32 861.64Z" fill="#F77F89"/>
<path fill-rule="evenodd" clip-rule="evenodd" d="M406.43 886.61L406.42 924.28L312.17 926.41C312.17 926.41 314.85 899.5 363.04 899.05C362.86 887.22 362.84 886.61 362.84 886.61H406.43Z" fill="#6367FD"/>
<path fill-rule="evenodd" clip-rule="evenodd" d="M449.42 867.06L448.78 895.29L412.38 896.57L402.92 865.14L449.42 867.06Z" fill="#F77F89"/>
<path fill-rule="evenodd" clip-rule="evenodd" d="M394.37 197C354.76 197 346.56 234.63 346.54 248.45C346.52 261.62 349.11 263.63 349.02 276.98C348.95 287.12 345.98 294.22 346.28 300.01C347.85 330.02 388.41 338.66 399.98 338.83C411.55 339 462 329.24 462 305.92C462 289.65 451.64 263.63 451.93 245.56C452.54 207.95 421.16 197 394.37 197Z" fill="black"/>
<path fill-rule="evenodd" clip-rule="evenodd" d="M449.62 890.28L449.09 927.98L356.56 930.07C356.56 930.07 356.56 902.58 407.23 902.09C407.23 896.56 407.23 890.28 407.23 890.28H449.62Z" fill="#6367FD"/>
<path fill-rule="evenodd" clip-rule="evenodd" d="M458.7 607.5L458.46 871.24L392.35 869.8L391.39 857.59L348.75 863.34L321.68 588.34L336.29 517.91L432.83 515.27L458.7 607.5Z" fill="#3B4161"/>
<path fill-rule="evenodd" clip-rule="evenodd" d="M380.8 719.56L341.15 786.19L348.67 862.63L391.39 857.67L380.8 719.56Z" fill="#15192C"/>
<path fill-rule="evenodd" clip-rule="evenodd" d="M408.6 538.98H338.37L328.85 435.22L341.54 355.7L365.55 332.59L389.63 321.86L433.06 328.51L408.6 538.98Z" fill="#F7D167"/>
<path d="M436.24 870.75L435.78 590.22" stroke="#737999" stroke-width="1.7029" stroke-linecap="round" stroke-linejoin="round"/>
<path fill-rule="evenodd" clip-rule="evenodd" d="M420.69 320.58C437.11 321.03 486.14 338.83 493.3 356.89C498.74 370.59 502.47 494.55 489.69 500.6C488.26 501.28 487.13 501.53 487.13 501.53C487.9 505.33 495.26 593.32 493.39 600.65C491.52 607.98 486.61 619.04 479.5 618.63C452 617.02 401.46 580.89 396.43 575.01C395.66 563.85 393.53 521.93 393.53 521.93L397.91 397.55L422.98 328.96C422.98 328.96 404.27 320.13 420.69 320.58Z" fill="white"/>
<path fill-rule="evenodd" clip-rule="evenodd" d="M384.91 319.8C356.68 323.31 316.83 345.2 311.7 355.17C307.38 363.56 309.58 472.04 309.58 472.04C309.58 472.04 325.54 493.99 318.36 525.56C311.74 554.68 309.78 593.99 316.73 601.35C328.17 595.56 342.88 572.34 345.53 566.62C348.19 560.9 348.86 528.54 350.9 521.6C352.94 514.66 362.07 392.17 362.07 392.17C362.07 392.17 366.33 342.7 384.91 319.8Z" fill="white"/>
<path d="M455.98 330.22C441.77 356.14 412.95 385.66 398.14 396.93" stroke="#C9C9C9" stroke-width="2" stroke-linecap="round" stroke-linejoin="round"/>
<path d="M370.67 322.77C358.01 339.83 354.76 368.82 364.64 398.26" stroke="#C9C9C9" stroke-width="2" stroke-linecap="round" stroke-linejoin="round"/>
<path d="M441.64 402.6C441.64 396.38 436.6 391.34 430.38 391.34C424.16 391.34 419.12 396.38 419.12 402.6C419.12 408.82 424.16 413.86 430.38 413.86C436.6 413.86 441.64 408.82 441.64 402.6Z" stroke="#353823" stroke-width="3.4058" stroke-linecap="round" stroke-linejoin="round"/>
<path fill-rule="evenodd" clip-rule="evenodd" d="M436.14 402.6C436.14 399.42 433.57 396.85 430.39 396.85C427.21 396.85 424.64 399.42 424.64 402.6C424.64 405.78 427.21 408.35 430.39 408.35C433.56 408.35 436.14 405.77 436.14 402.6Z" fill="#353823"/>
<path d="M433.41 391.75C441.01 363.84 441.5 324.97 421.88 317.99" stroke="#353823" stroke-width="3.4058" stroke-linecap="round" stroke-linejoin="round"/>
<path d="M387.64 313.25C376.45 317.99 365.78 339.85 363.28 358.58" stroke="#353823" stroke-width="3.4058" stroke-linecap="round" stroke-linejoin="round"/>
<path d="M375.35 393.73C378.93 376.44 373.53 360.7 363.29 358.58C353.05 356.46 341.84 368.76 338.26 386.05C334.68 403.34 340.08 419.08 350.32 421.2C360.56 423.32 371.77 411.02 375.35 393.73Z" stroke="#353823" stroke-width="3.4058" stroke-linecap="round" stroke-linejoin="round"/>
<path d="M444.99 366.52L449.31 450.64" stroke="#C9C9C9" stroke-width="2" stroke-linecap="round" stroke-linejoin="round"/>
<path d="M457.15 369.03L445.92 384.66" stroke="#C9C9C9" stroke-width="2" stroke-linecap="round" stroke-linejoin="round"/>
<path fill-rule="evenodd" clip-rule="evenodd" d="M419.64 443.94L462.79 454.27L419.64 443.94Z" fill="#606060"/>
<path d="M419.64 443.94L462.79 454.27" stroke="#C9C9C9" stroke-width="2" stroke-linecap="round" stroke-linejoin="round"/>
<path d="M460.65 442.72L449.62 451.12" stroke="#C9C9C9" stroke-width="2" stroke-linecap="round" stroke-linejoin="round"/>
<path d="M417.98 492.65C436.14 499.96 479.28 508.71 487.43 501.46C498.33 491.78 501.46 391.76 495.97 365.23C492.77 349.8 476.66 339.85 468.26 335.86" stroke="#C9C9C9" stroke-width="2" stroke-linecap="round" stroke-linejoin="round"/>
<path d="M430.96 496.93C436.13 490.36 438.12 457.6 435.62 447.77" stroke="#C9C9C9" stroke-width="2" stroke-linecap="round" stroke-linejoin="round"/>
<path fill-rule="evenodd" clip-rule="evenodd" d="M430.39 454.17C430.39 452.72 429.21 451.54 427.76 451.54C426.31 451.54 425.13 452.72 425.13 454.17C425.13 455.62 426.31 456.8 427.76 456.8C429.21 456.8 430.39 455.62 430.39 454.17Z" fill="#C9C9C9"/>
<path d="M435.2 534.47C440.71 536.6 446.79 537.82 453.21 537.82C457.95 537.82 462.42 536.99 466.7 535.8C467.01 537.06 467.23 538.33 467.23 539.68V560.57C467.23 569.67 459.84 577.07 450.73 577.07C441.62 577.07 434.26 569.68 434.26 560.57V539.68C434.27 537.85 434.65 536.12 435.2 534.47Z" stroke="#C9C9C9" stroke-width="2" stroke-linecap="round" stroke-linejoin="round"/>
<path fill-rule="evenodd" clip-rule="evenodd" d="M371.2 387.52H284.97C279.74 387.52 276.62 391.61 277.99 396.65L311.27 519.11C312.64 524.15 317.99 528.24 323.22 528.24H409.44C414.67 528.24 417.79 524.15 416.42 519.11L383.14 396.65C381.77 391.61 376.42 387.52 371.2 387.52Z" fill="#6367FD"/>
<path fill-rule="evenodd" clip-rule="evenodd" d="M347.4 381.22H298.46C295.96 381.22 294.48 383.17 295.17 385.58L297.55 393.9C298.24 396.31 300.83 398.26 303.33 398.26H352.27C354.78 398.26 356.25 396.31 355.56 393.9L353.18 385.58C352.49 383.17 349.9 381.22 347.4 381.22Z" fill="#3B4161"/>
<path fill-rule="evenodd" clip-rule="evenodd" d="M419.87 449.94C414.2 446.92 414.2 446.92 407.81 444.68C401.74 439.72 397.28 419.92 395.67 418.72C394.06 417.52 388.7 418.28 388.5 420.15C387.8 427 388.17 435 394.24 442.16C376.59 430.93 375.29 425.95 370.39 429.72C365.48 433.48 363.78 451.81 367.95 459.4C379.43 480.26 409.62 483.09 418.87 483.23C421.16 473.27 421.16 461.24 419.87 449.94Z" fill="#F77F89"/>
<path d="M458.47 850.65L390.18 848.45" stroke="#737999" stroke-width="1.7029" stroke-linecap="round" stroke-linejoin="round"/>
<path d="M370.45 583.65L391.31 857.59" stroke="#737999" stroke-width="1.7029" stroke-linecap="round" stroke-linejoin="round"/>
<path d="M389.63 835.58L346.51 840.63" stroke="#737999" stroke-width="1.7029" stroke-linecap="round" stroke-linejoin="round"/>
<path d="M335.03 724.42C335.62 724.48 336.22 724.51 336.82 724.51C346.73 724.51 354.76 716.48 354.76 706.57C354.76 696.66 346.73 688.63 336.82 688.63C335.01 688.63 333.26 688.9 331.61 689.4" stroke="#737999" stroke-width="1.7029" stroke-linecap="round" stroke-linejoin="round"/>
<path d="M381.97 736.69C392.4 736.13 400.67 727.49 400.67 716.93C400.67 706 391.81 697.14 380.88 697.14C380.24 697.14 379.61 697.17 378.98 697.23" stroke="#737999" stroke-width="1.7029" stroke-linecap="round" stroke-linejoin="round"/>
<path d="M367.27 435.09L382.71 447.45" stroke="#A7464F" stroke-width="3.4058" stroke-linecap="round" stroke-linejoin="round"/>
<path d="M365.59 447.89L385.22 463.49" stroke="#A7464F" stroke-width="3.4058" stroke-linecap="round" stroke-linejoin="round"/>
<path fill-rule="evenodd" clip-rule="evenodd" d="M279.46 447.3C279.7 443.18 278.5 434.03 274.8 425.31C273.46 422.15 273.38 416.95 278.09 416.95C283.45 416.95 290.63 427.7 287.06 440.51C283.5 453.33 279.11 453.12 279.46 447.3Z" fill="#F77F89"/>
<path fill-rule="evenodd" clip-rule="evenodd" d="M296.06 423.09C291.81 423.09 278.85 448.71 278.95 451.82C279.05 454.93 280.38 459.66 282.39 459.42C284.4 459.18 301.22 437.77 301.22 430.5C301.22 426.29 299.17 423.09 296.06 423.09Z" fill="#F77F89"/>
<path fill-rule="evenodd" clip-rule="evenodd" d="M301.65 437.81C296.34 437.81 282.34 458.23 282.24 460.57C282.14 462.91 284.97 465.06 287.31 465.15C289.65 465.25 306.38 451.53 306.38 445.12C306.38 441.26 304.66 437.81 301.65 437.81Z" fill="#F77F89"/>
<path fill-rule="evenodd" clip-rule="evenodd" d="M296.72 475.97C294.43 475.86 288.02 470.14 288.02 465.64C288.02 463.87 292.49 459.29 294.74 459.43C296.99 459.57 301.55 468.17 301.46 470.37C301.35 472.57 299.73 476.11 296.72 475.97Z" fill="#F77F89"/>
<path d="M288.02 432.56C283.43 440.2 278.89 449.97 278.95 451.82" stroke="#A7464F" stroke-width="3.4058" stroke-linecap="round" stroke-linejoin="round"/>
<path d="M298.41 439.31C292.09 444.07 282.32 458.61 282.24 460.57" stroke="#A94B53" stroke-width="3.4058" stroke-linecap="round" stroke-linejoin="round"/>
<path fill-rule="evenodd" clip-rule="evenodd" d="M436.56 255.49C436.56 232.6 418.25 214.04 395.66 214.04C373.07 214.04 354.76 232.6 354.76 255.49C354.76 278.38 373.07 296.94 395.66 296.94C418.25 296.94 436.56 278.39 436.56 255.49Z" fill="#F77F89"/>
<path fill-rule="evenodd" clip-rule="evenodd" d="M401.68 258.48C401.25 255.83 399.65 253.89 398.12 254.14C396.59 254.39 395.7 256.74 396.13 259.39C396.56 262.04 398.16 263.98 399.69 263.73C401.22 263.48 402.11 261.13 401.68 258.48Z" fill="#B5545C"/>
<path fill-rule="evenodd" clip-rule="evenodd" d="M370.87 260.46C370.46 257.99 368.98 256.18 367.55 256.41C366.12 256.64 365.29 258.84 365.7 261.31C366.11 263.78 367.59 265.59 369.02 265.36C370.45 265.12 371.28 262.93 370.87 260.46Z" fill="#B5545C"/>
<path fill-rule="evenodd" clip-rule="evenodd" d="M430.31 273.74C427.88 280.5 421.77 315.63 423.31 328.39C416.9 338.09 388.38 335.34 379.88 327.18C384.11 315.37 384.28 306.9 382.72 296.94C381.26 287.62 432.74 266.98 430.31 273.74Z" fill="#F77F89"/>
<path fill-rule="evenodd" clip-rule="evenodd" d="M379.43 212.98C379.08 222.83 388.07 232.24 412.51 236.91C409.83 243.82 409.61 254.22 422.96 256.08C438.53 258.26 439.8 238.37 439.8 238.37L416.48 210.82C416.48 210.82 379.77 203.13 379.43 212.98Z" fill="black"/>
<path fill-rule="evenodd" clip-rule="evenodd" d="M386.77 206.07C387.74 214.83 377.7 236.04 354.38 236.65C337.8 236.65 385.8 197.31 386.77 206.07Z" fill="black"/>
<path fill-rule="evenodd" clip-rule="evenodd" d="M413.82 295.47C416.05 292.64 412.78 279.74 409.28 273.83C405.02 271.32 389.91 273.41 382.12 266.71C379.82 264.73 378.6 266.19 376.81 268.39C373.68 272.23 364.27 274.22 360.75 276.42C360.23 282.02 365.38 294.84 367.59 297.71C371.09 302.22 402.9 302.63 413.82 295.47Z" fill="#6367FD"/>
<path d="M407.23 275C409.3 271.56 418.29 256.17 421.16 252.27" stroke="#3B4161" stroke-width="3.4058" stroke-linecap="round" stroke-linejoin="round"/>
<path d="M412.05 294.65C418.14 294.65 432.61 275.6 434.27 269.21" stroke="#3B4161" stroke-width="3.4058" stroke-linecap="round" stroke-linejoin="round"/>
<path fill-rule="evenodd" clip-rule="evenodd" d="M443.56 258.89C443.56 251.53 437.59 245.56 430.23 245.56C422.87 245.56 416.9 251.53 416.9 258.89C416.9 266.25 422.87 272.22 430.23 272.22C437.59 272.22 443.56 266.25 443.56 258.89Z" fill="#F77F89"/>
<path d="M359.33 921.16L449.19 920.54" stroke="#4C4FD9" stroke-width="1.7029" stroke-linecap="round" stroke-linejoin="round"/>
<path d="M357.41 925.57C359.88 917.75 369.54 902.45 407.23 902.09V898.3" stroke="#4C4FD9" stroke-width="1.7029" stroke-linecap="round" stroke-linejoin="round"/>
<path d="M449.19 910.18C439.81 910.18 432.21 917.78 432.21 927.15C432.21 927.6 432.23 928.04 432.26 928.48" stroke="#4C4FD9" stroke-width="1.7029" stroke-linecap="round" stroke-linejoin="round"/>
<path d="M397.27 910.72L392.87 903.08" stroke="#4C4FD9" stroke-width="1.7029" stroke-linecap="round" stroke-linejoin="round"/>
<path d="M386.89 912.52L383.13 905.02" stroke="#4C4FD9" stroke-width="1.7029" stroke-linecap="round" stroke-linejoin="round"/>
<path d="M377.07 914.49L373.8 908.42" stroke="#4C4FD9" stroke-width="1.7029" stroke-linecap="round" stroke-linejoin="round"/>
<path d="M394.93 548.64L348.23 547.17" stroke="#737999" stroke-width="1.7029" stroke-linecap="round" stroke-linejoin="round"/>
<path d="M449.55 895.13L407.23 894.44" stroke="#4C4FD9" stroke-width="1.7029" stroke-linecap="round" stroke-linejoin="round"/>
<path d="M406.43 891.01L362.91 890.66" stroke="#4C4FD9" stroke-width="1.7029" stroke-linecap="round" stroke-linejoin="round"/>
<path d="M314.43 919.82L360.85 918.78" stroke="#4C4FD9" stroke-width="1.7029" stroke-linecap="round" stroke-linejoin="round"/>
<path d="M348.95 900.06L352.93 907.18" stroke="#4C4FD9" stroke-width="1.7029" stroke-linecap="round" stroke-linejoin="round"/>
<path d="M342.28 901.65L346.26 908.78" stroke="#4C4FD9" stroke-width="1.7029" stroke-linecap="round" stroke-linejoin="round"/>
<path d="M335.16 903.61L339.14 910.73" stroke="#4C4FD9" stroke-width="1.7029" stroke-linecap="round" stroke-linejoin="round"/>
<path d="M467.13 616.2C482.11 622.48 493.39 611.29 493.48 600.16C493.57 589.03 489.17 522.9 488.57 516.29" stroke="#C9C9C9" stroke-width="2" stroke-linecap="round" stroke-linejoin="round"/>
<path d="M309.8 371.01C309.02 348.37 332.86 337.97 342.67 333.57" stroke="#C9C9C9" stroke-width="2" stroke-linecap="round" stroke-linejoin="round"/>
<path d="M314.46 596.97C312.59 584.9 312.44 552.25 315.61 539.78" stroke="#C9C9C9" stroke-width="2" stroke-linecap="round" stroke-linejoin="round"/>
</g>
</g>
<defs>
<clipPath id="clip0">
<rect width="697" height="930.07" fill="white"/>
</clipPath>
<clipPath id="clip1">
<rect width="225.62" height="733.07" transform="matrix(-1 0 0 1 499.62 197)" fill="white"/>
</clipPath>
</defs>
</svg>
