<svg width="628" height="792" viewBox="0 0 628 792" fill="none" xmlns="http://www.w3.org/2000/svg">
<g clip-path="url(#clip0)">
<path fill-rule="evenodd" clip-rule="evenodd" d="M263.299 0.369939C330.042 -6.10101 369.426 73.9999 426.511 109.109C490.603 148.529 587.01 149.765 617.726 218.356C648.426 286.913 603.563 365.243 571.665 433.252C543.174 493.994 499.111 543.111 446.08 584.311C391.303 626.867 332.175 664.159 263.299 672.821C187.738 682.323 98.3265 687.844 43.6737 634.916C-10.5583 582.396 4.21068 493.765 0.624786 418.438C-2.04198 362.418 3.37775 307.71 25.646 256.218C46.2164 208.651 86.3186 176.665 121.612 138.67C167.651 89.1067 195.892 6.90538 263.299 0.369939Z" fill="#EFF2F8"/>
<g clip-path="url(#clip1)">
<path fill-rule="evenodd" clip-rule="evenodd" d="M308.71 714.98L314.47 744.3L281.57 759.66L267.74 729.32L308.71 714.98Z" fill="black"/>
<path fill-rule="evenodd" clip-rule="evenodd" d="M295.28 791.8L278.32 752.54C278.32 752.54 297.54 743.73 313.1 737.34C337.45 740.97 374.29 738.87 386.49 736.35C389.78 744.6 391.63 750.23 391.63 750.23L295.28 791.8Z" fill="black"/>
<path fill-rule="evenodd" clip-rule="evenodd" d="M69.79 718.19L55.6 731.29L25.01 708.79L35.83 694.51L69.79 718.19Z" fill="black"/>
<path fill-rule="evenodd" clip-rule="evenodd" d="M27.73 705.19L2 738.92L57.21 782.25H111.77L111.66 767.93C111.66 767.93 72.98 760.96 73.09 761.04C65.07 751.51 58.59 728.52 58.59 728.52L27.73 705.19Z" fill="black"/>
<path fill-rule="evenodd" clip-rule="evenodd" d="M123.18 406.14C123.18 406.14 105.25 538.62 98.8797 552.89C92.5197 567.16 30.9597 695.41 30.9597 695.41L75.4397 727.32C75.4397 727.32 174.49 577.96 178.99 570.01C181.89 564.89 189.61 534.4 189.61 534.4L265.9 742.1L316.45 719.03L263.37 411.51L123.18 406.14Z" fill="#AADAF1"/>
<path fill-rule="evenodd" clip-rule="evenodd" d="M176.91 408.2L216.66 409.72L216.37 419.3L176.91 408.2ZM215.6 444.49L211.05 592.8L189.66 534.55L215.6 444.49Z" fill="#73A9C3"/>
<path d="M189.58 534.56L219.38 430.72" stroke="#0097F7" stroke-width="1.7029" stroke-linecap="round" stroke-linejoin="round"/>
<path d="M75.5098 656.63L116.97 579.94C108.88 571.75 105.48 563 124.05 573.38C137.82 581.07 140.12 578.46 128.02 565.15C111.77 547.27 114.6 544.82 130.58 547.41" stroke="#0097F7" stroke-width="1.7029" stroke-linecap="round" stroke-linejoin="round"/>
<path d="M127.27 540.97C127.27 540.97 140.59 447.32 144.49 435.79" stroke="#0097F7" stroke-width="1.7029" stroke-linecap="round" stroke-linejoin="round"/>
<path d="M265.37 650.44C263.9 644.15 255.94 588.14 251 586.76C227.47 580.21 223.22 571.07 245.7 564.66C267.75 558.37 267.62 556.48 247.78 550.44C227.48 544.25 231.48 540.97 244.53 529.32C248.95 525.37 228.68 476.01 227.48 471.2" stroke="#0097F7" stroke-width="1.7029" stroke-linecap="round" stroke-linejoin="round"/>
<path fill-rule="evenodd" clip-rule="evenodd" d="M88.5201 310.96C88.6401 303.25 86.9801 289.51 90.4301 281.25C93.8701 272.99 116.58 276.55 116.58 276.55C116.58 276.55 88.4001 318.67 88.5201 310.96Z" fill="#EF6A75"/>
<path fill-rule="evenodd" clip-rule="evenodd" d="M182.16 178.15C130.54 178.15 88.4199 204.3 88.0099 243.93C87.7599 268.8 83.1799 286.69 83.1799 286.69L128.95 298.07C128.95 298.07 113.05 407.24 118.63 411.83C135.23 425.51 251.69 430.09 266.14 415.21C267.41 396.79 256.21 347.71 256.21 347.71C256.21 347.71 291.75 263.93 272.49 224.42C254.23 186.97 206.25 180.24 184.98 179.51C183.82 179.46 183.16 178.15 182.16 178.15Z" fill="#6367FD"/>
<path fill-rule="evenodd" clip-rule="evenodd" d="M151.57 109.97C151.27 92.28 169.34 68 195.36 68C215.76 68 236.58 77.7 237.11 93.48C238.17 86.96 239.18 82.93 238.44 79.33C242.84 79.12 251.69 90.46 251.69 105.62C251.69 111.48 247.12 133.67 234.12 133.35C221.12 133.04 171.5 150.83 171.5 150.83C171.5 150.83 168.25 155.6 163.84 155.24C159.43 154.88 151.12 146.64 151.04 142.08C150.97 137.52 155.09 129.36 155.02 126.83C154.95 124.3 151.88 127.66 151.57 109.97Z" fill="#6A3416"/>
<path d="M213.79 229.64L222.97 263.02" stroke="black" stroke-width="3.4058" stroke-linecap="round" stroke-linejoin="round"/>
<path fill-rule="evenodd" clip-rule="evenodd" d="M239.71 132.71C239.71 111.34 222.39 94.02 201.02 94.02C179.65 94.02 162.33 111.34 162.33 132.71C162.33 154.08 179.65 171.4 201.02 171.4C222.39 171.4 239.71 154.08 239.71 132.71Z" fill="#EF6A75"/>
<path fill-rule="evenodd" clip-rule="evenodd" d="M241.57 118.01C241.57 118.01 236.38 116.96 228.72 105.69C219.18 107.49 203.49 107.4 190.1 103.37C189.93 111.43 184.01 124.64 175.86 123.18C167.71 121.72 164.37 102.08 164.37 102.08L183.58 82.0098L212.66 82.1798L233.08 96.5998L241.57 118.01Z" fill="#6A3416"/>
<path fill-rule="evenodd" clip-rule="evenodd" d="M230.02 128.11C230.38 125.03 229.41 122.38 227.86 122.2C226.31 122.02 224.76 124.37 224.4 127.45C224.04 130.53 225.01 133.18 226.56 133.36C228.11 133.54 229.66 131.19 230.02 128.11Z" fill="#90415B"/>
<path fill-rule="evenodd" clip-rule="evenodd" d="M161.95 140.76C162.92 146.92 164.97 176.16 161.78 182.38C168.85 189.51 189.59 192.57 200.44 189.48C199.6 181.04 203.09 172.79 204.96 169.42C206.82 166.04 160.98 134.6 161.95 140.76Z" fill="#EF6A75"/>
<path fill-rule="evenodd" clip-rule="evenodd" d="M204.18 123.36C204.54 120.28 203.57 117.63 202.02 117.45C200.47 117.27 198.91 119.62 198.56 122.7C198.2 125.78 199.17 128.43 200.72 128.61C202.27 128.8 203.82 126.45 204.18 123.36Z" fill="#90415B"/>
<path d="M217.06 129.14C216.75 132.79 219.67 146.54 220.29 148.68C220.91 150.82 217.58 151.6 217.58 151.6" stroke="#90415B" stroke-width="1.7029" stroke-linecap="round" stroke-linejoin="round"/>
<path fill-rule="evenodd" clip-rule="evenodd" d="M237.77 144.84C237.57 148.71 228.43 168.67 223.05 171.74C217.67 174.81 177.04 174.42 167.71 154.31C175.37 153.12 180.56 146.62 186.62 132.71C200.16 134.68 215.51 132.71 217.98 132.85C220.69 133 227.21 141.96 237.77 144.84Z" fill="#F7D167"/>
<path fill-rule="evenodd" clip-rule="evenodd" d="M156.7 218.56C135.46 218.15 93.3397 215.58 89.1097 233.59C84.8797 251.6 80.8597 282.46 83.1797 286.69C85.4997 290.92 128.76 296.28 128.76 296.28C132.17 287.59 151.05 238.76 156.7 218.56Z" fill="#6367FD"/>
<path fill-rule="evenodd" clip-rule="evenodd" d="M111.37 337.89C123.07 339.79 192.12 291.68 200.67 292.62C209.23 293.55 231.2 292.72 231.2 292.72C231.2 292.72 243.7 244.81 217.03 243.04C215.38 242.93 205.61 251.62 205.61 251.62C205.61 251.62 202.9 250.77 201.01 252.31C197.56 255.13 186.34 267.88 180.73 269.9C171.29 273.31 94.6797 287.8 91.0097 293.95C87.3397 300.09 83.2997 333.34 111.37 337.89Z" fill="#EF6A75"/>
<path fill-rule="evenodd" clip-rule="evenodd" d="M294.83 263.99H241.29C235.11 263.99 228.09 268.57 225.6 274.23L187.91 359.84C185.42 365.49 188.41 370.08 194.59 370.08H248.13C254.31 370.08 261.33 365.5 263.82 359.84L301.51 274.23C303.99 268.57 301 263.99 294.83 263.99Z" fill="#F7D167"/>
<path fill-rule="evenodd" clip-rule="evenodd" d="M296.14 333.56C298.68 326.97 300.51 317.89 296.92 312.06C293.34 306.24 279.57 288.33 273.86 287.99C268.15 287.65 253.48 303.55 251.92 308.7C250.35 313.85 250.91 325.04 253.38 329.86C255.84 334.67 265.72 344.04 270.69 344.23C275.65 344.42 294.59 337.58 296.14 333.56Z" fill="#EF6A75"/>
<path fill-rule="evenodd" clip-rule="evenodd" d="M297.55 320.41C298.25 309.79 302.87 298.28 306.02 290.49C308.12 285.3 306.57 280.85 303.03 279.84C299.49 278.83 288.47 293.35 288.15 304.58C287.83 315.8 296.85 331.03 297.55 320.41Z" fill="#EF6A75"/>
<path d="M298.21 315C295.71 309.28 291.36 302.97 288.14 299.59" stroke="#81666F" stroke-width="1.7029" stroke-linecap="round" stroke-linejoin="round"/>
<path d="M284.01 316.72C284.01 311.01 272.37 294.36 268.05 292.31" stroke="#905F6F" stroke-width="1.7029" stroke-linecap="round" stroke-linejoin="round"/>
<path d="M272.58 323.44C272.45 320.67 263.39 305.58 258.2 302.58" stroke="#8B5D6C" stroke-width="1.7029" stroke-linecap="round" stroke-linejoin="round"/>
<path d="M251.3 234.86C252.25 240.72 253.24 253.25 250.82 263.97" stroke="#3B4161" stroke-width="1.7029" stroke-linecap="round" stroke-linejoin="round"/>
<path d="M183.94 259.2L150.18 259.88" stroke="#3B4161" stroke-width="1.7029" stroke-linecap="round" stroke-linejoin="round"/>
<path fill-rule="evenodd" clip-rule="evenodd" d="M202.95 181.22C203.44 186.16 209.3 218.11 189.58 218.11C176.89 218.11 157.19 188.58 160.31 179.79" fill="#EF6A75"/>
<path d="M202.95 181.22C203.44 186.16 209.3 218.11 189.58 218.11C176.89 218.11 157.19 188.58 160.31 179.79" stroke="#AADAF1" stroke-width="1.7029" stroke-linecap="round" stroke-linejoin="round"/>
<path fill-rule="evenodd" clip-rule="evenodd" d="M180.74 128.35C180.74 120.21 174.14 113.61 166 113.61C157.86 113.61 151.26 120.21 151.26 128.35C151.26 136.49 157.86 143.09 166 143.09C174.14 143.08 180.74 136.48 180.74 128.35Z" fill="#EF6A75"/>
<path d="M186.47 133.03C186.47 133.03 177.15 115.96 167.29 113.67" stroke="#F7D167" stroke-width="1.7029" stroke-linecap="round" stroke-linejoin="round"/>
<path d="M167.77 154.43L160.55 142.04" stroke="#F7D167" stroke-width="1.7029" stroke-linecap="round" stroke-linejoin="round"/>
<path d="M134.6 281.12C140.25 266.31 148.36 244.57 153.48 228.99" stroke="#3B4161" stroke-width="1.7029" stroke-linecap="round" stroke-linejoin="round"/>
<path d="M292.11 784.45L388.98 742.81" stroke="#7C7C7C" stroke-width="1.7029" stroke-linecap="round" stroke-linejoin="round"/>
<path d="M111.72 776.09L59.9697 774.29L6.90973 732.49" stroke="#7C7C7C" stroke-width="1.7029" stroke-linecap="round" stroke-linejoin="round"/>
<path d="M180.828 151.591C182.706 155.54 184.687 159.44 186.634 163.355" stroke="white" stroke-width="2" stroke-linecap="round" stroke-linejoin="round"/>
<path d="M184.453 146.522C187.76 152.88 191.164 159.204 194.166 165.715C194.579 166.609 195.034 167.649 195.388 168.608" stroke="white" stroke-width="2" stroke-linecap="round" stroke-linejoin="round"/>
<path d="M190.873 140.195C194.113 146.813 197.328 153.445 200.688 160.003C201.412 161.415 202.14 162.825 202.893 164.222C208.38 174.399 201.541 161.653 205.125 167.962" stroke="white" stroke-width="2" stroke-linecap="round" stroke-linejoin="round"/>
<path d="M198.552 136.693C199.383 138.401 200.482 139.977 201.439 141.615C203.784 145.626 205.853 149.789 208.163 153.819C209.989 157.007 212.004 160.016 214.248 162.922C214.862 163.716 215.818 164.894 216.425 165.734C218.606 168.749 215.829 164.97 217.535 167.502" stroke="white" stroke-width="2" stroke-linecap="round" stroke-linejoin="round"/>
<path d="M210.439 138.506C212.083 142.5 214.03 146.381 215.917 150.262C216.964 152.415 218.017 154.567 219.084 156.71C231.58 181.8 215.392 149.285 222.542 163.355" stroke="white" stroke-width="2" stroke-linecap="round" stroke-linejoin="round"/>
<path d="M220.575 139.611C223.419 145.438 226.149 151.296 229.299 156.966" stroke="white" stroke-width="2" stroke-linecap="round" stroke-linejoin="round"/>
<path d="M230.958 144.833C231.99 147.174 232.777 149.622 233.661 152.021" stroke="white" stroke-width="2" stroke-linecap="round" stroke-linejoin="round"/>
</g>
</g>
<defs>
<clipPath id="clip0">
<rect width="628" height="791.8" fill="white"/>
</clipPath>
<clipPath id="clip1">
<rect width="389.63" height="723.8" transform="matrix(-1 0 0 1 391.63 68)" fill="white"/>
</clipPath>
</defs>
</svg>
