<svg width="846" height="852" viewBox="0 0 846 852" fill="none" xmlns="http://www.w3.org/2000/svg">
<g clip-path="url(#clip0)">
<path fill-rule="evenodd" clip-rule="evenodd" d="M497.156 37.7979C593.388 47.2248 701.144 21.8042 771.641 88.0089C843.294 155.3 850.352 264.56 843.018 362.603C836.283 452.637 798.022 535.915 733.418 598.959C669.671 661.166 586.208 699.958 497.156 700.111C407.955 700.264 333.696 650.168 260.082 599.771C160.318 531.473 24.3958 481.831 4.15461 362.603C-17.3104 236.166 56.016 98.9313 163.08 28.394C259.8 -35.3283 381.897 26.507 497.156 37.7979Z" fill="#EFF2F8"/>
<g clip-path="url(#clip1)">
<path d="M567.198 283.608H501.66C501.049 283.608 500.462 283.852 500.03 284.286C499.598 284.72 499.355 285.308 499.355 285.921V318.302C499.355 318.915 499.598 319.503 500.03 319.937C500.462 320.371 501.049 320.615 501.66 320.615H567.198C567.809 320.615 568.396 320.371 568.828 319.937C569.261 319.503 569.504 318.915 569.504 318.302V285.921C569.504 285.308 569.261 284.72 568.828 284.286C568.396 283.852 567.809 283.608 567.198 283.608Z" stroke="#CFD6E3" stroke-width="2" stroke-linecap="round" stroke-linejoin="round"/>
<path d="M532.095 246.521H466.569C465.957 246.521 465.371 246.765 464.938 247.199C464.506 247.632 464.263 248.221 464.263 248.834V281.215C464.263 281.828 464.506 282.416 464.938 282.85C465.371 283.284 465.957 283.527 466.569 283.527H532.095C532.706 283.527 533.293 283.284 533.725 282.85C534.157 282.416 534.4 281.828 534.4 281.215V248.834C534.4 248.221 534.157 247.632 533.725 247.199C533.293 246.765 532.706 246.521 532.095 246.521Z" stroke="#CFD6E3" stroke-width="2" stroke-linecap="round" stroke-linejoin="round"/>
<path d="M496.992 283.608H431.466C430.854 283.608 430.268 283.852 429.835 284.286C429.403 284.72 429.16 285.308 429.16 285.921V318.302C429.16 318.915 429.403 319.503 429.835 319.937C430.268 320.371 430.854 320.615 431.466 320.615H496.992C497.603 320.615 498.19 320.371 498.622 319.937C499.054 319.503 499.297 318.915 499.297 318.302V285.921C499.297 285.308 499.054 284.72 498.622 284.286C498.19 283.852 497.603 283.608 496.992 283.608Z" stroke="#CFD6E3" stroke-width="2" stroke-linecap="round" stroke-linejoin="round"/>
<path d="M601.183 320.684H535.657C535.045 320.684 534.459 320.928 534.026 321.362C533.594 321.795 533.351 322.384 533.351 322.997V355.377C533.351 355.991 533.594 356.579 534.026 357.013C534.459 357.447 535.045 357.69 535.657 357.69H601.183C601.794 357.69 602.381 357.447 602.813 357.013C603.245 356.579 603.488 355.991 603.488 355.377V322.997C603.488 322.384 603.245 321.795 602.813 321.362C602.381 320.928 601.794 320.684 601.183 320.684Z" stroke="#CFD6E3" stroke-width="2" stroke-linecap="round" stroke-linejoin="round"/>
<path fill-rule="evenodd" clip-rule="evenodd" d="M492.484 718.512H714.539C716.007 718.512 717.414 719.097 718.452 720.138C719.489 721.179 720.072 722.59 720.072 724.063V724.063C720.069 725.533 719.485 726.942 718.448 727.98C717.41 729.019 716.005 729.602 714.539 729.602H492.484C491.018 729.602 489.613 729.019 488.575 727.98C487.538 726.942 486.953 725.533 486.95 724.063V724.063C486.95 722.59 487.533 721.179 488.571 720.138C489.609 719.097 491.016 718.512 492.484 718.512V718.512Z" fill="white"/>
<path fill-rule="evenodd" clip-rule="evenodd" d="M145.96 751.91H368.049C368.775 751.908 369.494 752.05 370.164 752.328C370.835 752.606 371.444 753.014 371.957 753.529C372.47 754.043 372.877 754.655 373.154 755.327C373.431 756 373.573 756.721 373.571 757.449V757.449C373.573 758.177 373.431 758.898 373.154 759.571C372.877 760.244 372.47 760.855 371.957 761.37C371.444 761.884 370.835 762.292 370.164 762.57C369.494 762.848 368.775 762.99 368.049 762.989H145.96C144.495 762.989 143.091 762.405 142.055 761.366C141.02 760.327 140.438 758.918 140.438 757.449V757.449C140.438 755.98 141.02 754.571 142.055 753.532C143.091 752.493 144.495 751.91 145.96 751.91V751.91Z" fill="white"/>
<path fill-rule="evenodd" clip-rule="evenodd" d="M629.807 722.837C611.291 722.845 593.183 728.291 577.716 738.503C562.249 748.714 550.101 763.244 542.77 780.301C536.804 775.474 529.381 772.823 521.717 772.783C514.053 772.743 506.603 775.317 500.588 780.081C496.414 770.107 489.538 761.506 480.739 755.252C471.94 748.999 461.571 745.343 450.807 744.7C440.043 744.057 429.314 746.453 419.838 751.615C410.362 756.777 402.517 764.499 397.192 773.905C391.649 770.468 385.411 768.315 378.934 767.602C372.456 766.889 365.901 767.635 359.747 769.786C353.593 771.936 347.995 775.437 343.36 780.033C338.726 784.629 335.172 790.204 332.958 796.352C333.972 796.352 334.929 796.063 335.955 796.063H774.842C773.237 790.145 770.136 784.744 765.839 780.381C761.543 776.018 756.196 772.841 750.317 771.158C744.438 769.475 738.226 769.343 732.281 770.775C726.336 772.206 720.86 775.153 716.383 779.329C708.946 762.521 696.808 748.238 681.441 738.211C666.075 728.184 648.139 722.844 629.807 722.837V722.837Z" fill="#EFF2F8"/>
<path fill-rule="evenodd" clip-rule="evenodd" d="M309.175 784.984H811.295C812.76 784.987 814.165 785.573 815.2 786.614C816.235 787.655 816.817 789.065 816.817 790.535V790.535C816.813 792.003 816.231 793.41 815.196 794.449C814.161 795.487 812.758 796.071 811.295 796.074H309.175C307.711 796.071 306.309 795.487 305.274 794.449C304.239 793.41 303.656 792.003 303.653 790.535V790.535C303.653 789.065 304.234 787.655 305.27 786.614C306.305 785.573 307.709 784.987 309.175 784.984V784.984Z" fill="#CFD6E3"/>
<path fill-rule="evenodd" clip-rule="evenodd" d="M227.671 721.461L213.065 741.988L243.153 779.815L256.987 755.529L227.671 721.461Z" fill="#F77F89"/>
<path fill-rule="evenodd" clip-rule="evenodd" d="M211.716 732.655L177.132 772.738L231.464 836.342C231.464 836.342 267.524 835.949 278.914 835.949C278.683 822.071 268.631 793.322 240.64 794.432C246.289 784.487 250.301 776.288 250.301 776.288L211.716 732.655Z" fill="#6367FD"/>
<path d="M240.617 794.467C224.974 789.622 217.861 795.936 206.886 807.616C199.22 815.78 183.242 815.087 173.454 810.403" stroke="#4C4FD9" stroke-width="2" stroke-linecap="round" stroke-linejoin="round"/>
<path d="M204.765 845.443C209.92 847.664 215.244 849.47 220.685 850.844C235.003 838.123 243.476 807.928 240.79 794.467" stroke="#4C4FD9" stroke-width="2" stroke-linecap="round" stroke-linejoin="round"/>
<path d="M197.744 748.429C201.127 750.997 203.749 754.44 205.331 758.389C206.913 762.338 207.395 766.644 206.724 770.846C206.054 775.048 204.257 778.989 201.526 782.245C198.795 785.501 195.232 787.951 191.219 789.333" stroke="#4C4FD9" stroke-width="2" stroke-linecap="round" stroke-linejoin="round"/>
<path d="M183.161 765.718L236.64 824.303L276.262 821.99" stroke="#4C4FD9" stroke-width="2" stroke-linecap="round" stroke-linejoin="round"/>
<path fill-rule="evenodd" clip-rule="evenodd" d="M313.89 551.857L222.449 719.969L257.46 761.08L422.693 590.042L386.425 538.627L313.89 551.857Z" fill="#F7D167"/>
<path d="M276.47 741.409L235.683 695.626" stroke="#FF3274" stroke-width="2" stroke-linecap="round" stroke-linejoin="round"/>
<path fill-rule="evenodd" clip-rule="evenodd" d="M386.414 538.639L313.902 551.868L277.011 619.74L340.336 618.225L360.982 653.924L422.693 590.066L386.414 538.639Z" fill="#BF9111"/>
<path d="M237.92 738.137C275.386 694.111 390.091 559.929 390.091 559.929" stroke="#FF3274" stroke-width="2" stroke-linecap="round" stroke-linejoin="round"/>
<path fill-rule="evenodd" clip-rule="evenodd" d="M486.95 776.623L497.994 799.752L547.496 790.766L539.311 762.908L486.95 776.623Z" fill="#F77F89"/>
<path fill-rule="evenodd" clip-rule="evenodd" d="M490.651 799.845L507.563 848.415C507.563 848.415 605.402 828.756 612.838 826.824C599.004 794.213 570.621 799.683 558.171 802.805C555.05 796.864 552.263 790.753 549.825 784.499L490.651 799.845Z" fill="#6367FD"/>
<path d="M557.341 791.634C559.347 785.088 564.005 780.729 567.717 781.885C571.429 783.042 572.858 789.263 570.852 795.762C568.846 802.262 564.189 806.656 560.477 805.511C556.765 804.366 555.335 798.168 557.341 791.634Z" stroke="#4C4FD9" stroke-width="2" stroke-linecap="round" stroke-linejoin="round"/>
<path d="M573.734 790.801C578.922 785.47 585.378 783.793 588.167 787.066C590.957 790.338 588.997 797.312 583.81 802.643C578.622 807.974 572.166 809.662 569.377 806.39C566.587 803.117 568.546 796.167 573.734 790.801Z" stroke="#4C4FD9" stroke-width="2" stroke-linecap="round" stroke-linejoin="round"/>
<path fill-rule="evenodd" clip-rule="evenodd" d="M528.602 409.452C534.735 414.425 541.098 420.346 549.272 423.445C561.492 426.417 583.856 451.003 583.856 456.3C583.856 461.319 579.395 463.007 576.616 463.238C574.219 463.389 569.112 457.826 567.82 456.242C570.045 461.33 571.337 468.223 568.87 470.385C566.403 472.548 562.852 473.3 560.431 470.501C556.454 465.875 557.434 460.625 557.065 457.549C555.105 453.79 549.767 445.429 547.508 444.412C545.929 444.492 543.554 445.048 543.104 447.58C542.655 450.113 548.522 455.768 549.179 458.127C549.179 461.122 545.917 464.927 543.104 464.175C539.899 463.319 529.985 453.663 527.795 451.026C524.844 447.476 523.506 439.739 521.927 437.149C520.348 434.559 514.215 429.054 513.073 427.898C511.932 426.741 522.48 404.468 528.602 409.452Z" fill="#F77F89"/>
<path fill-rule="evenodd" clip-rule="evenodd" d="M467.387 288.222C489.418 306.992 522.388 380.911 543.577 399.102C541.363 410.516 506.26 453.027 481.452 442.897C450.372 430.199 450.752 274.056 467.387 288.222Z" fill="#3B4161"/>
<path fill-rule="evenodd" clip-rule="evenodd" d="M484.506 393.586L549.825 765.648L481.394 781.839L391.532 545.3L413.85 380.911L484.506 393.586Z" fill="#F7D167"/>
<path d="M426.831 638.208L394.702 553.626" stroke="#FF3274" stroke-width="2" stroke-linecap="round" stroke-linejoin="round"/>
<path d="M511.148 774.808L405.585 441.798" stroke="#FF3274" stroke-width="2" stroke-linecap="round" stroke-linejoin="round"/>
<path d="M490.294 426.591C481.071 430.465 433.806 439.219 415.545 437.299" stroke="#FF3274" stroke-width="2" stroke-linecap="round" stroke-linejoin="round"/>
<path fill-rule="evenodd" clip-rule="evenodd" d="M292.09 337.799L416.029 350.994C423.419 351.781 428.71 358.766 427.903 366.606L407.775 556.783C406.945 564.613 400.293 570.325 392.904 569.504L268.965 556.356C261.575 555.569 256.284 548.584 257.091 540.744L277.207 350.566C278.037 342.726 284.701 337.059 292.09 337.799Z" fill="#6367FD"/>
<path d="M296.16 453.675C296.16 444.297 298.932 435.13 304.125 427.333C309.319 419.536 316.701 413.459 325.337 409.87C333.974 406.281 343.477 405.342 352.646 407.172C361.815 409.001 370.236 413.517 376.847 420.148C383.457 426.779 387.958 435.227 389.782 444.425C391.606 453.622 390.67 463.156 387.093 471.819C383.515 480.483 377.457 487.888 369.684 493.098C361.912 498.308 352.773 501.089 343.425 501.089C330.889 501.089 318.867 496.094 310.003 487.202C301.139 478.31 296.16 466.25 296.16 453.675Z" stroke="#4C4FD9" stroke-width="2" stroke-linecap="round" stroke-linejoin="round"/>
<path fill-rule="evenodd" clip-rule="evenodd" d="M340.382 125.314C340.382 113.507 347.01 103.932 355.195 103.932C363.38 103.932 370.021 113.507 370.021 125.314C370.021 137.122 363.38 146.697 355.195 146.697C347.01 146.697 340.382 137.122 340.382 125.314Z" fill="#F77F89"/>
<path fill-rule="evenodd" clip-rule="evenodd" d="M348.728 136.532C348.728 127.138 351.505 117.955 356.708 110.144C361.911 102.333 369.306 96.2458 377.958 92.6514C386.61 89.0569 396.131 88.117 405.315 89.9506C414.5 91.7841 422.936 96.3087 429.557 102.952C436.178 109.596 440.686 118.06 442.512 127.273C444.338 136.487 443.398 146.037 439.813 154.716C436.228 163.394 430.158 170.811 422.37 176.029C414.582 181.246 405.427 184.03 396.063 184.027C389.846 184.027 383.69 182.799 377.946 180.412C372.202 178.025 366.984 174.526 362.588 170.116C358.193 165.705 354.706 160.469 352.328 154.707C349.95 148.945 348.727 142.769 348.728 136.532V136.532Z" fill="#F77F89"/>
<path fill-rule="evenodd" clip-rule="evenodd" d="M332.704 439.612C330.502 446.979 323.366 462.302 330.156 489.721C317.291 509.67 323.297 523.72 352.763 527.248C357.72 521.176 362.689 517.198 368.222 508.432C370.021 500.545 369.859 488.437 370.021 485.153C370.332 478.515 360.637 452.252 363.046 440.457C365.455 428.661 334.906 432.234 332.704 439.612Z" fill="#F77F89"/>
<path fill-rule="evenodd" clip-rule="evenodd" d="M391.451 199.963C323.343 199.963 297.416 343.535 304.852 435.403C318.974 444.342 375.335 447.823 391.451 443.579C394.91 427.447 396.063 359.934 396.835 348.947C434.451 352.648 427.961 358.488 423.419 408.99C443.017 409.672 469.416 404.364 489.129 396.061C491.896 361.437 471.607 199.963 391.451 199.963Z" fill="#3B4161"/>
<path d="M296.16 346.507L305.152 260.179C306.558 246.674 313.255 234.284 323.768 225.732C334.282 217.181 347.751 213.169 361.213 214.58L370.862 215.586C384.324 216.997 396.676 223.715 405.2 234.262C413.725 244.808 417.724 258.32 416.317 271.824L407.095 360.581" stroke="#6367FD" stroke-width="6.77" stroke-linecap="round" stroke-linejoin="round"/>
<path fill-rule="evenodd" clip-rule="evenodd" d="M363.588 164.321C367.138 179.621 368.026 201.166 367.438 209.631C376.465 214.974 399.867 218.686 411.118 203.536C405.792 190.619 404.605 184.374 405.055 176.938C405.504 169.502 360.037 149.022 363.588 164.321Z" fill="#F77F89"/>
<path fill-rule="evenodd" clip-rule="evenodd" d="M378.678 180.72C377.675 172.509 383.566 153.185 386.932 150.502C418.577 151.658 438.221 129.05 441.414 122.863C444.368 126.797 446.519 131.277 447.743 136.046C448.562 139.192 447.847 141.401 442.487 145.911C441.126 164.448 424.353 193.88 378.678 180.72Z" fill="white"/>
<path d="M389.445 152.456C389.445 152.456 360.625 128.795 352.256 127.639" stroke="white" stroke-width="3.05" stroke-linecap="round" stroke-linejoin="round"/>
<path fill-rule="evenodd" clip-rule="evenodd" d="M412.951 127.673C412.951 123.556 414.288 120.214 415.937 120.214C417.585 120.214 418.923 123.556 418.923 127.673C418.923 131.79 417.585 135.132 415.937 135.132C414.288 135.132 412.951 131.79 412.951 127.673Z" fill="#CB5D66"/>
<path d="M393.988 417.906C383.024 419.491 323.378 416.9 303.653 408.759" stroke="#737999" stroke-width="2" stroke-linecap="round" stroke-linejoin="round"/>
<path d="M396.835 348.947C396.063 326.316 416.594 252.835 376.015 222.617" stroke="#737999" stroke-width="2" stroke-linecap="round" stroke-linejoin="round"/>
<path d="M396.846 348.82L376.015 357.771" stroke="#737999" stroke-width="2" stroke-linecap="round" stroke-linejoin="round"/>
<path d="M376.926 346.831L396.904 348.242" stroke="#737999" stroke-width="2" stroke-linecap="round" stroke-linejoin="round"/>
<path d="M379.889 332.734L396.927 348.092" stroke="#737999" stroke-width="2" stroke-linecap="round" stroke-linejoin="round"/>
<path d="M489.187 396.038C490.34 380.9 487.158 341.523 476.506 301.996" stroke="#737999" stroke-width="2" stroke-linecap="round" stroke-linejoin="round"/>
<path d="M527.91 380.761C518.687 397.09 496.784 414.726 488.829 418.23" stroke="#737999" stroke-width="2" stroke-linecap="round" stroke-linejoin="round"/>
<path d="M463.79 432.847C462.822 426.996 459.341 405.266 459.341 405.266" stroke="#FF3274" stroke-width="2" stroke-linecap="round" stroke-linejoin="round"/>
<path d="M545.756 742.508L470.949 754.35" stroke="#FF3274" stroke-width="2" stroke-linecap="round" stroke-linejoin="round"/>
<path d="M524.325 619.59C523 619.739 521.669 619.812 520.336 619.809C511.509 619.811 502.987 616.569 496.381 610.696C489.775 604.823 485.543 596.725 484.484 587.934C483.425 579.144 485.613 570.268 490.634 562.986C495.656 555.703 503.163 550.518 511.736 548.411" stroke="#FF3274" stroke-width="2" stroke-linecap="round" stroke-linejoin="round"/>
<path d="M504.346 839.198L608.987 819.296" stroke="#4C4FD9" stroke-width="2" stroke-linecap="round" stroke-linejoin="round"/>
<path d="M495.977 816.382C499.523 814.986 503.356 814.481 507.141 814.909C510.927 815.337 514.551 816.687 517.698 818.84C520.845 820.993 523.421 823.884 525.2 827.263C526.98 830.642 527.91 834.405 527.91 838.227C527.913 840.264 527.654 842.293 527.138 844.263" stroke="#4C4FD9" stroke-width="2" stroke-linecap="round" stroke-linejoin="round"/>
<path d="M379.174 178.985C375.554 177.609 361.005 172.521 353.443 157.232" stroke="white" stroke-width="3.05" stroke-linecap="round" stroke-linejoin="round"/>
<path fill-rule="evenodd" clip-rule="evenodd" d="M339.529 145.575C339.526 142.548 340.419 139.589 342.094 137.071C343.769 134.553 346.151 132.59 348.938 131.431C351.726 130.272 354.793 129.968 357.753 130.558C360.713 131.148 363.431 132.605 365.565 134.745C367.699 136.886 369.151 139.613 369.739 142.582C370.328 145.551 370.025 148.628 368.869 151.424C367.713 154.22 365.756 156.61 363.246 158.29C360.737 159.97 357.786 160.866 354.769 160.864C350.728 160.861 346.853 159.249 343.996 156.382C341.138 153.516 339.532 149.629 339.529 145.575V145.575Z" fill="#F77F89"/>
<path d="M369.352 150.051C368.395 153.181 366.461 155.921 363.836 157.867C361.211 159.814 358.033 160.864 354.769 160.864" stroke="#CB5D66" stroke-width="2" stroke-linecap="round" stroke-linejoin="round"/>
<path d="M342.745 136.173C344.945 133.338 348.072 131.373 351.575 130.623" stroke="#CB5D66" stroke-width="2" stroke-linecap="round" stroke-linejoin="round"/>
<path fill-rule="evenodd" clip-rule="evenodd" d="M379.07 68.9264C372.543 70.4345 366.375 73.2178 360.92 77.1172C355.465 81.0167 350.829 85.956 347.277 91.653C343.725 97.3499 341.327 103.693 340.219 110.32C339.111 116.947 339.315 123.728 340.82 130.276L440.227 107.297C438.723 100.749 435.949 94.5622 432.062 89.0899C428.174 83.6176 423.251 78.9671 417.572 75.4039C411.893 71.8408 405.569 69.4348 398.963 68.3233C392.357 67.2119 385.597 67.4168 379.07 68.9264V68.9264Z" fill="#F2E283"/>
<path fill-rule="evenodd" clip-rule="evenodd" d="M402.438 99.9073L474.27 83.3008C480.218 81.913 485.798 84.2375 486.812 88.4585C487.781 92.6911 483.746 97.2359 477.786 98.6236L405.954 115.23C399.994 116.606 394.426 114.293 393.411 110.061C392.431 105.828 396.478 101.283 402.438 99.9073Z" fill="#F2E283"/>
<path d="M328.058 517.95C331.128 514.685 333.88 511.134 336.278 507.345" stroke="#CB5D66" stroke-width="2" stroke-linecap="round" stroke-linejoin="round"/>
<path d="M340.785 524.877C345.627 520.182 352.717 510.271 356.337 504.327" stroke="#CB5D66" stroke-width="2" stroke-linecap="round" stroke-linejoin="round"/>
<path d="M544.487 445.302C551.75 439.254 563.082 451.639 568.235 456.635" stroke="#CB5D66" stroke-width="2" stroke-linecap="round" stroke-linejoin="round"/>
<path d="M357.409 151.797C356.577 152.166 355.678 152.355 354.769 152.352C353.756 152.353 352.757 152.12 351.849 151.67C350.941 151.22 350.148 150.566 349.534 149.758C348.92 148.95 348.5 148.011 348.308 147.013C348.115 146.016 348.155 144.987 348.424 144.008C348.693 143.029 349.185 142.125 349.86 141.367C350.535 140.61 351.375 140.019 352.315 139.641C353.255 139.263 354.27 139.109 355.279 139.189C356.289 139.27 357.266 139.583 358.135 140.105" stroke="#CB5D66" stroke-width="2" stroke-linecap="round" stroke-linejoin="round"/>
<path d="M403.348 69.2501C396.226 67.4004 388.789 67.1174 381.547 68.4206C374.305 69.7237 367.43 72.5822 361.392 76.8C355.355 81.0179 350.298 86.4954 346.568 92.8571C342.838 99.2189 340.523 106.314 339.782 113.658" stroke="#FF3274" stroke-width="2" stroke-linecap="round" stroke-linejoin="round"/>
<path d="M441.414 122.863C444.368 126.797 446.519 131.277 447.743 136.046C448.562 139.192 447.847 141.401 442.487 145.911C441.426 160.285 431.108 181.205 405.239 183.75" stroke="#C9C9C9" stroke-width="2" stroke-linecap="round" stroke-linejoin="round"/>
</g>
</g>
<defs>
<clipPath id="clip0">
<rect x="0.415283" width="844.88" height="852" fill="white"/>
</clipPath>
<clipPath id="clip1">
<rect x="140.438" y="66.4517" width="676.379" height="785.549" fill="white"/>
</clipPath>
</defs>
</svg>
