<svg width="655" height="629" viewBox="0 0 655 629" fill="none" xmlns="http://www.w3.org/2000/svg">
<g clip-path="url(#clip0)">
<path fill-rule="evenodd" clip-rule="evenodd" d="M285.44 280.19C285.44 273.39 296.14 267.89 309.33 267.89C322.52 267.89 333.22 273.39 333.22 280.19C333.22 286.99 322.52 292.48 309.33 292.48C296.14 292.48 285.44 287 285.44 280.19Z" fill="#8DC5E0"/>
<path fill-rule="evenodd" clip-rule="evenodd" d="M248.11 566L255.36 589.34L285.44 582.47L282.49 552.79L248.11 566Z" fill="#FF3274"/>
<path fill-rule="evenodd" clip-rule="evenodd" d="M168.27 282.94H625.75C626.922 282.94 628.046 283.406 628.875 284.235C629.704 285.063 630.17 286.188 630.17 287.36V295.36C630.17 296.532 629.704 297.656 628.875 298.485C628.046 299.314 626.922 299.78 625.75 299.78H168.27C167.098 299.78 165.973 299.314 165.145 298.485C164.316 297.656 163.85 296.532 163.85 295.36V287.36C163.85 286.188 164.316 285.063 165.145 284.235C165.973 283.406 167.098 282.94 168.27 282.94Z" fill="#AADAF1"/>
<path d="M230.55 300.18L138 584" stroke="#AADAF1" stroke-width="2" stroke-linecap="round" stroke-linejoin="round"/>
<path d="M305.66 300.18L213.15 584" stroke="#AADAF1" stroke-width="2" stroke-linecap="round" stroke-linejoin="round"/>
<path d="M305.66 300.18L398.16 584" stroke="#AADAF1" stroke-width="2" stroke-linecap="round" stroke-linejoin="round"/>
<path d="M230.55 300.18L323.05 584" stroke="#AADAF1" stroke-width="2" stroke-linecap="round" stroke-linejoin="round"/>
<path fill-rule="evenodd" clip-rule="evenodd" d="M147.78 537.54L138.04 559.54L165 571.09L177 548.85L147.78 537.54Z" fill="#FF3274"/>
<path fill-rule="evenodd" clip-rule="evenodd" d="M137.42 557.51L165.92 569.85C165.92 569.85 201.44 603.13 217.83 611.24C217.78 618.63 216.83 622.06 211.15 624.17C208.61 625.11 162.7 606.73 162.7 606.73L155 598.47L125.3 584.81L137.42 557.51Z" fill="#6A3416"/>
<path d="M154.63 551.71C154.63 550.992 154.843 550.29 155.242 549.693C155.641 549.096 156.208 548.631 156.871 548.356C157.534 548.082 158.264 548.01 158.968 548.15C159.672 548.29 160.319 548.636 160.827 549.143C161.334 549.651 161.68 550.298 161.82 551.002C161.96 551.706 161.888 552.436 161.614 553.099C161.339 553.763 160.874 554.329 160.277 554.728C159.68 555.127 158.978 555.34 158.26 555.34C157.783 555.341 157.31 555.248 156.869 555.066C156.428 554.884 156.028 554.617 155.69 554.28C155.353 553.942 155.086 553.542 154.904 553.101C154.722 552.66 154.629 552.187 154.63 551.71V551.71Z" stroke="white" stroke-width="2" stroke-linecap="round" stroke-linejoin="round"/>
<path d="M140.9 556.44C140.9 555.72 141.114 555.016 141.514 554.417C141.915 553.818 142.484 553.351 143.149 553.076C143.815 552.801 144.547 552.729 145.254 552.871C145.96 553.012 146.609 553.36 147.117 553.87C147.626 554.38 147.972 555.029 148.111 555.736C148.251 556.443 148.177 557.175 147.9 557.84C147.623 558.505 147.155 559.073 146.555 559.471C145.955 559.87 145.25 560.082 144.53 560.08C143.566 560.077 142.643 559.693 141.963 559.01C141.282 558.328 140.9 557.404 140.9 556.44V556.44Z" stroke="white" stroke-width="2" stroke-linecap="round" stroke-linejoin="round"/>
<path d="M159.72 562.83C159.72 562.112 159.933 561.41 160.332 560.813C160.731 560.216 161.298 559.751 161.961 559.476C162.624 559.202 163.354 559.13 164.058 559.27C164.762 559.41 165.409 559.755 165.917 560.263C166.424 560.771 166.77 561.418 166.91 562.122C167.05 562.826 166.978 563.556 166.704 564.219C166.429 564.882 165.964 565.449 165.367 565.848C164.77 566.247 164.068 566.46 163.35 566.46C162.387 566.46 161.464 566.077 160.783 565.397C160.102 564.716 159.72 563.793 159.72 562.83Z" stroke="white" stroke-width="2" stroke-linecap="round" stroke-linejoin="round"/>
<path fill-rule="evenodd" clip-rule="evenodd" d="M123.06 579.56L152.13 592.49C152.886 592.82 153.48 593.435 153.784 594.201C154.087 594.967 154.075 595.823 153.75 596.58L151.21 602.29C151.04 602.661 150.798 602.994 150.499 603.272C150.199 603.549 149.848 603.764 149.466 603.905C149.083 604.047 148.676 604.111 148.268 604.095C147.861 604.078 147.46 603.982 147.09 603.81L118 590.88C117.625 590.719 117.286 590.486 117.002 590.193C116.718 589.901 116.494 589.555 116.343 589.176C116.193 588.797 116.119 588.392 116.125 587.985C116.131 587.577 116.218 587.174 116.38 586.8L118.91 581.09C119.081 580.716 119.325 580.38 119.626 580.101C119.928 579.822 120.281 579.605 120.667 579.463C121.053 579.32 121.463 579.256 121.873 579.273C122.284 579.289 122.687 579.387 123.06 579.56Z" fill="#3C1B09"/>
<path fill-rule="evenodd" clip-rule="evenodd" d="M73.89 327C140.1 308.35 235.08 318.68 255.57 347.13C262.89 357.29 260.41 373.19 258.57 379.18C256.73 385.17 179.25 551.4 179.25 551.4L144.51 538.19L178.65 403.19C178.65 403.19 65.66 329.3 73.89 327Z" fill="#C4C4C4"/>
<path d="M156.81 542.86L196.8 414" stroke="#8D8D8D" stroke-width="2" stroke-linecap="round" stroke-linejoin="round"/>
<path d="M148 524.33L185.28 538.33" stroke="#8D8D8D" stroke-width="2" stroke-linecap="round" stroke-linejoin="round"/>
<path fill-rule="evenodd" clip-rule="evenodd" d="M254.76 587.19L284.62 578.67C284.62 578.67 333.19 581.9 351.01 577.78C355.66 583.53 357.13 586.78 354.01 592.02C352.64 594.35 305.48 609.24 305.48 609.24L294.29 607.73L262.7 616L254.76 587.19Z" fill="#6A3416"/>
<path fill-rule="evenodd" clip-rule="evenodd" d="M257.63 613.36L288.31 604.93C288.701 604.817 289.111 604.782 289.516 604.827C289.921 604.873 290.313 604.997 290.669 605.194C291.026 605.391 291.34 605.656 291.594 605.975C291.848 606.293 292.037 606.659 292.15 607.05L293.81 613.05C293.914 613.445 293.939 613.856 293.883 614.26C293.828 614.665 293.693 615.054 293.487 615.406C293.281 615.758 293.007 616.066 292.681 616.312C292.356 616.558 291.985 616.738 291.59 616.84L260.91 625.27C260.519 625.383 260.109 625.418 259.704 625.373C259.299 625.328 258.907 625.203 258.551 625.006C258.194 624.809 257.88 624.544 257.626 624.225C257.372 623.907 257.183 623.542 257.07 623.15L255.41 617.15C255.306 616.755 255.281 616.344 255.337 615.94C255.392 615.536 255.527 615.146 255.733 614.794C255.939 614.442 256.213 614.134 256.539 613.888C256.864 613.642 257.235 613.462 257.63 613.36Z" fill="#3C1B09"/>
<path d="M268.1 576.74C268.098 576.019 268.31 575.314 268.709 574.714C269.108 574.114 269.677 573.646 270.342 573.369C271.008 573.092 271.741 573.019 272.448 573.16C273.155 573.3 273.804 573.647 274.314 574.156C274.823 574.666 275.17 575.315 275.31 576.022C275.451 576.729 275.378 577.462 275.101 578.128C274.824 578.793 274.356 579.362 273.756 579.761C273.156 580.16 272.451 580.372 271.73 580.37C270.767 580.37 269.844 579.988 269.163 579.307C268.482 578.626 268.1 577.703 268.1 576.74Z" stroke="white" stroke-width="2" stroke-linecap="round" stroke-linejoin="round"/>
<path d="M274.61 565C274.608 564.279 274.82 563.574 275.219 562.974C275.618 562.374 276.187 561.906 276.852 561.629C277.518 561.352 278.251 561.279 278.958 561.42C279.665 561.56 280.314 561.907 280.824 562.416C281.334 562.926 281.68 563.575 281.821 564.282C281.961 564.989 281.888 565.722 281.611 566.388C281.334 567.053 280.866 567.622 280.266 568.021C279.666 568.42 278.961 568.632 278.24 568.63C277.278 568.627 276.356 568.244 275.676 567.564C274.996 566.884 274.613 565.962 274.61 565V565Z" stroke="white" stroke-width="2" stroke-linecap="round" stroke-linejoin="round"/>
<path d="M254.76 574.15C254.76 573.432 254.973 572.73 255.372 572.133C255.771 571.536 256.338 571.071 257.001 570.796C257.664 570.522 258.394 570.45 259.098 570.59C259.802 570.73 260.449 571.076 260.957 571.583C261.464 572.091 261.81 572.738 261.95 573.442C262.09 574.146 262.018 574.876 261.744 575.539C261.469 576.202 261.004 576.769 260.407 577.168C259.81 577.567 259.108 577.78 258.39 577.78C257.427 577.78 256.504 577.398 255.823 576.717C255.142 576.036 254.76 575.113 254.76 574.15Z" stroke="white" stroke-width="2" stroke-linecap="round" stroke-linejoin="round"/>
<path fill-rule="evenodd" clip-rule="evenodd" d="M19.63 408.63H171.43C176.636 408.63 181.629 410.698 185.311 414.379C188.992 418.061 191.06 423.054 191.06 428.26C191.06 433.466 188.992 438.459 185.311 442.14C181.629 445.822 176.636 447.89 171.43 447.89H19.63C14.4238 447.89 9.43083 445.822 5.74949 442.14C2.06816 438.459 0 433.466 0 428.26H0C0 423.054 2.06816 418.061 5.74949 414.379C9.43083 410.698 14.4238 408.63 19.63 408.63Z" fill="#AADAF1"/>
<path fill-rule="evenodd" clip-rule="evenodd" d="M89.17 434.48H101.89C102.898 434.48 103.864 434.88 104.577 435.593C105.29 436.306 105.69 437.272 105.69 438.28V578.88C105.69 579.888 105.29 580.854 104.577 581.567C103.864 582.28 102.898 582.68 101.89 582.68H89.17C88.1622 582.68 87.1956 582.28 86.483 581.567C85.7703 580.854 85.37 579.888 85.37 578.88V438.28C85.37 437.272 85.7703 436.306 86.483 435.593C87.1956 434.88 88.1622 434.48 89.17 434.48Z" fill="#AADAF1"/>
<path fill-rule="evenodd" clip-rule="evenodd" d="M84.05 537.54H107.05C108.71 537.54 110.303 538.2 111.476 539.374C112.65 540.548 113.31 542.14 113.31 543.8V577.74C113.31 578.566 113.146 579.384 112.829 580.147C112.511 580.91 112.045 581.602 111.459 582.184C110.872 582.766 110.176 583.226 109.411 583.538C108.646 583.85 107.826 584.007 107 584H84C82.3397 584 80.7475 583.34 79.5735 582.167C78.3995 580.993 77.74 579.4 77.74 577.74V543.8C77.74 542.974 77.9035 542.156 78.2212 541.393C78.539 540.63 79.0045 539.938 79.5911 539.356C80.1777 538.774 80.8738 538.314 81.639 538.002C82.4043 537.69 83.2237 537.533 84.05 537.54Z" fill="#AADAF1"/>
<path d="M19.3199 608.17V601.54C19.3199 596.888 21.1679 592.427 24.4573 589.137C27.7467 585.848 32.208 584 36.8599 584H95.5299" stroke="#AADAF1" stroke-width="2" stroke-linecap="round" stroke-linejoin="round"/>
<path d="M171.57 608.17V601.54C171.569 599.234 171.113 596.952 170.229 594.822C169.345 592.693 168.051 590.759 166.419 589.13C164.787 587.501 162.851 586.209 160.72 585.329C158.589 584.449 156.306 583.997 154 584H95.35" stroke="#AADAF1" stroke-width="2" stroke-linecap="round" stroke-linejoin="round"/>
<path d="M66.78 608.17V600.17C66.78 591.24 71.43 584 77.16 584H113.9C119.63 584 124.28 591.24 124.28 600.17V608.17" stroke="#AADAF1" stroke-width="2" stroke-linecap="round" stroke-linejoin="round"/>
<path d="M9.70996 617.79C9.70996 615.889 10.2736 614.031 11.3295 612.451C12.3855 610.871 13.8864 609.639 15.6424 608.911C17.3984 608.184 19.3306 607.994 21.1948 608.365C23.0589 608.735 24.7713 609.651 26.1153 610.995C27.4592 612.339 28.3745 614.051 28.7453 615.915C29.1161 617.779 28.9258 619.712 28.1984 621.468C27.4711 623.224 26.2393 624.724 24.659 625.78C23.0786 626.836 21.2206 627.4 19.32 627.4C16.772 627.397 14.3292 626.384 12.5276 624.582C10.7259 622.781 9.71261 620.338 9.70996 617.79V617.79Z" stroke="#AADAF1" stroke-width="2" stroke-linecap="round" stroke-linejoin="round"/>
<path d="M57.17 617.79C57.17 615.889 57.7337 614.031 58.7896 612.451C59.8456 610.871 61.3465 609.639 63.1025 608.911C64.8585 608.184 66.7907 607.994 68.6549 608.365C70.519 608.735 72.2314 609.651 73.5753 610.995C74.9193 612.339 75.8346 614.051 76.2054 615.915C76.5762 617.779 76.3859 619.712 75.6585 621.468C74.9312 623.224 73.6994 624.724 72.1191 625.78C70.5387 626.836 68.6807 627.4 66.78 627.4C64.2321 627.397 61.7893 626.384 59.9877 624.582C58.186 622.781 57.1727 620.338 57.17 617.79V617.79Z" stroke="#AADAF1" stroke-width="2" stroke-linecap="round" stroke-linejoin="round"/>
<path d="M124.28 608.17C126.183 608.168 128.044 608.73 129.627 609.786C131.211 610.842 132.445 612.344 133.175 614.102C133.905 615.859 134.096 617.794 133.726 619.661C133.356 621.527 132.441 623.242 131.096 624.589C129.751 625.935 128.037 626.852 126.17 627.224C124.304 627.596 122.369 627.406 120.611 626.679C118.853 625.951 117.35 624.718 116.292 623.136C115.235 621.553 114.67 619.693 114.67 617.79C114.67 615.24 115.682 612.795 117.484 610.991C119.286 609.187 121.73 608.173 124.28 608.17" stroke="#AADAF1" stroke-width="2" stroke-linecap="round" stroke-linejoin="round"/>
<path d="M162 617.79C162 615.889 162.564 614.031 163.62 612.451C164.676 610.871 166.176 609.639 167.932 608.911C169.688 608.184 171.621 607.994 173.485 608.365C175.349 608.735 177.061 609.651 178.405 610.995C179.749 612.339 180.665 614.051 181.035 615.915C181.406 617.779 181.216 619.712 180.488 621.468C179.761 623.224 178.529 624.724 176.949 625.78C175.369 626.836 173.511 627.4 171.61 627.4C169.062 627.397 166.619 626.384 164.818 624.582C163.016 622.781 162.003 620.338 162 617.79V617.79Z" stroke="#AADAF1" stroke-width="2" stroke-linecap="round" stroke-linejoin="round"/>
<path fill-rule="evenodd" clip-rule="evenodd" d="M25.3199 287.87C-35.2501 414.39 86.9999 417.8 129.9 417.17C172.8 416.54 184.09 413.31 195.7 410.5C199.41 421.74 243.88 567.3 243.88 567.3L282.93 555.5C282.93 555.5 253.08 370.58 246.34 358.09C227.83 323.75 118.34 321.89 104.49 322.72C90.6399 323.55 32.9999 271.83 25.3199 287.87Z" fill="#C4C4C4"/>
<path d="M29.1 305.16C-12.39 408.71 165.55 402.47 204.47 390.61C210.29 407.26 258.47 562.02 258.47 562.02" stroke="#8D8D8D" stroke-width="2" stroke-linecap="round" stroke-linejoin="round"/>
<path d="M254.11 390.8C241.591 388.224 230.309 381.494 222.095 371.701C213.882 361.908 209.218 349.627 208.86 336.85" stroke="#8D8D8D" stroke-width="2" stroke-linecap="round" stroke-linejoin="round"/>
<path d="M177.07 414.3C183.345 413.376 189.564 412.107 195.7 410.5C197.24 415.16 205.79 442.93 215.26 473.83" stroke="#8D8D8D" stroke-width="2" stroke-linecap="round" stroke-linejoin="round"/>
<path d="M253.82 388.78C250.56 372.51 247.82 360.91 246.34 358.09C228.94 325.83 131.18 322.23 107.99 322.61" stroke="#8D8D8D" stroke-width="2" stroke-linecap="round" stroke-linejoin="round"/>
<path d="M281.06 544.06L240.52 556.31" stroke="#8D8D8D" stroke-width="2" stroke-linecap="round" stroke-linejoin="round"/>
<path fill-rule="evenodd" clip-rule="evenodd" d="M98.67 91.68C98.67 87.5815 99.8855 83.5751 102.163 80.1675C104.44 76.7599 107.676 74.1042 111.463 72.5362C115.25 70.9683 119.416 70.5585 123.436 71.3588C127.456 72.1591 131.147 74.1335 134.045 77.0323C136.942 79.931 138.915 83.6239 139.713 87.6438C140.511 91.6638 140.1 95.8302 138.53 99.6161C136.96 103.402 134.303 106.637 130.894 108.913C127.485 111.188 123.478 112.402 119.38 112.4C116.66 112.4 113.966 111.864 111.452 110.823C108.939 109.781 106.656 108.255 104.732 106.331C102.809 104.406 101.284 102.122 100.244 99.6084C99.2034 97.0946 98.6687 94.4005 98.67 91.68Z" fill="#6A3416"/>
<path fill-rule="evenodd" clip-rule="evenodd" d="M294.48 262.25C297.89 259.45 307.13 252.62 310.09 252.66C313.05 252.7 322.01 261.12 322.21 263.33C322.41 265.54 319.56 269.03 317.86 269.28C316.16 269.53 310.69 264.28 309.49 264.75C308.29 265.22 305.65 268.02 304.88 269.26C304.11 270.5 291.08 265 294.48 262.25Z" fill="#F77F89"/>
<path fill-rule="evenodd" clip-rule="evenodd" d="M172.28 207.35L192.74 228.23C192.74 228.23 208.22 195 219 177.42C216.82 174.28 213 161.77 213.49 159.42C213.98 157.07 225.24 134.89 227.96 136.18C230.68 137.47 233.22 141.8 231.83 146.18C233.44 140.41 236.16 132.43 238.56 131.64C240.96 130.85 246.01 131.89 245.79 135.94C246.94 133.29 248.97 131.43 251.29 131.33C253.29 131.24 257.37 132.95 257.65 135.47C257.99 138.62 253.49 146.14 252.94 147.21C255.04 144.35 255.02 144.21 256.28 144.21C258.81 144.3 263.09 148.06 261 153.49C258.91 158.92 248.58 184.26 240.58 185.34C240.95 190.26 217.11 258.91 217.11 258.91L180.99 257.47L154.68 222.67L172.28 207.35Z" fill="#F77F89"/>
<path fill-rule="evenodd" clip-rule="evenodd" d="M101.12 131.92C34.69 132 12.49 287.92 19.43 298.61C24.52 306.45 84.78 329.5 105.43 322.42C112.72 319.92 131.69 280.97 142.43 241.67C153.88 232.27 175.55 214.47 179.08 211.04C178.08 203.51 160.67 173.17 142.64 159.73C136.41 145.5 124.85 131.92 101.12 131.92Z" fill="#3B4161"/>
<path fill-rule="evenodd" clip-rule="evenodd" d="M118.3 237.86C118.3 237.86 150.01 277.86 158.35 281.11C166.69 284.36 256.77 283.32 263.35 282.55C269.93 281.78 268.73 286.8 274.68 287.12C280.84 287.46 284.39 282.01 285.23 279.26C288.99 283.44 295.62 289.87 299.97 287.63C303.05 286.03 303.09 284.63 300.97 282.42C303.97 284.15 309.39 286.69 311.58 284.98C315.1 282.24 315.43 279.68 314.24 277.55C310.57 270.96 298.75 261.63 295.94 260.55C292.7 259.27 282.83 262.79 278.08 263.08C256.55 264.41 202.26 251.02 184.45 250.21C181.83 245.21 154.68 212.38 152.58 209.1C145.13 215.47 118.3 237.86 118.3 237.86Z" fill="#F77F89"/>
<path fill-rule="evenodd" clip-rule="evenodd" d="M109.45 99.8499C109.448 93.6268 111.292 87.543 114.748 82.3679C118.204 77.1928 123.117 73.1589 128.866 70.7766C134.615 68.3942 140.941 67.7703 147.045 68.9839C153.149 70.1975 158.755 73.194 163.156 77.5943C167.556 81.9947 170.552 87.6012 171.766 93.7048C172.98 99.8084 172.356 106.135 169.973 111.884C167.591 117.633 163.557 122.546 158.382 126.002C153.207 129.458 147.123 131.302 140.9 131.3C132.56 131.297 124.562 127.983 118.664 122.085C112.767 116.188 109.453 108.19 109.45 99.8499Z" fill="#F77F89"/>
<path fill-rule="evenodd" clip-rule="evenodd" d="M113.67 93.0001C113.8 97.8901 103.56 128.81 99.52 134.73C101.52 139.46 121.09 151.32 130.08 148.79C131.08 142.79 134.43 130.73 136.5 128.05C138.57 125.37 113.54 88.0701 113.67 93.0001Z" fill="#F77F89"/>
<path fill-rule="evenodd" clip-rule="evenodd" d="M149.62 33.5401C146.63 33.5492 143.678 34.2086 140.969 35.4726C138.26 36.7366 135.858 38.575 133.93 40.8601C131.344 39.8847 128.604 39.3768 125.84 39.3601C122.135 39.3073 118.47 40.1334 115.146 41.7705C111.822 43.4076 108.933 45.8091 106.716 48.7782C104.499 51.7474 103.018 55.1996 102.392 58.8519C101.767 62.5042 102.017 66.2527 103.12 69.7901C101.723 71.0757 100.607 72.6369 99.8426 74.3752C99.0785 76.1135 98.6826 77.9912 98.6801 79.8901C98.7025 83.1574 99.8631 86.3147 101.962 88.8188C104.061 91.3229 106.967 93.0171 110.18 93.6101C110.34 92.8401 110.34 92.3001 110.59 91.4201C111.27 89.0801 121.45 84.8001 122.59 85.5701C123.487 86.2139 124.509 86.6635 125.59 86.8901C125.683 86.8955 125.777 86.8955 125.87 86.8901C130.098 86.8792 134.246 85.7377 137.884 83.5837C141.522 81.4297 144.517 78.3418 146.56 74.6401C147.581 74.8195 148.614 74.9231 149.65 74.9501C149.65 79.0481 150.865 83.0541 153.142 86.4615C155.419 89.8689 158.655 92.5246 162.441 94.0928C166.227 95.6611 170.393 96.0714 174.412 95.2719C178.432 94.4725 182.124 92.4991 185.021 89.6013C187.919 86.7036 189.892 83.0116 190.692 78.9923C191.491 74.973 191.081 70.8069 189.513 67.0209C187.945 63.2348 185.289 59.9988 181.881 57.722C178.474 55.4453 174.468 54.2301 170.37 54.2301C170.366 51.5091 169.826 48.8155 168.781 46.3031C167.736 43.7908 166.207 41.5088 164.28 39.5876C162.353 37.6663 160.067 36.1434 157.552 35.1058C155.036 34.0682 152.341 33.5361 149.62 33.5401Z" fill="#6A3416"/>
<path fill-rule="evenodd" clip-rule="evenodd" d="M101.11 80.7899C101.116 78.3822 101.835 76.0303 103.177 74.0312C104.519 72.0322 106.424 70.4757 108.65 69.5585C110.876 68.6412 113.324 68.4043 115.685 68.8776C118.045 69.351 120.213 70.5133 121.913 72.2179C123.614 73.9225 124.771 76.0928 125.238 78.4547C125.706 80.8166 125.463 83.264 124.54 85.4879C123.617 87.7117 122.056 89.6122 120.054 90.9493C118.051 92.2863 115.698 92.9999 113.29 92.9999C111.688 92.9999 110.102 92.6839 108.622 92.0699C107.142 91.4559 105.798 90.5561 104.667 89.4219C103.535 88.2877 102.639 86.9414 102.029 85.4602C101.418 83.979 101.106 82.3919 101.11 80.7899Z" fill="#F77F89"/>
<path d="M38.58 292.48C37.27 273.14 55.75 201.29 69.58 179.91" stroke="#737999" stroke-width="2" stroke-linecap="round" stroke-linejoin="round"/>
<path d="M79.53 196.92C82.75 203.57 98.68 233.02 112.18 243.41C117.33 238.53 154.45 206.9 154.45 206.9C149.71 198.09 126.92 170.47 119.53 163.7" stroke="#737999" stroke-width="2" stroke-linecap="round" stroke-linejoin="round"/>
<path d="M105.19 236.69L149.81 199.82" stroke="#737999" stroke-width="2" stroke-linecap="round" stroke-linejoin="round"/>
<path d="M137.55 150.57C137.241 151.558 136.775 152.49 136.17 153.33C130.87 160.73 115.93 159.92 102.8 151.53" stroke="#737999" stroke-width="2" stroke-linecap="round" stroke-linejoin="round"/>
<path d="M142.77 159.8C145.3 166.38 148.77 181.73 147.3 196.42" stroke="#737999" stroke-width="2" stroke-linecap="round" stroke-linejoin="round"/>
<path d="M159.2 217.63L176 202.72" stroke="#737999" stroke-width="2" stroke-linecap="round" stroke-linejoin="round"/>
<path d="M86 279C91.55 278.13 121.85 278.75 116.25 280.65C110.65 282.55 100.17 283.9 104.84 285C109.326 286.051 113.871 286.832 118.45 287.34" stroke="#737999" stroke-width="2" stroke-linecap="round" stroke-linejoin="round"/>
<path d="M157.58 100.68C157.27 103.45 157.88 109.68 159.97 112.4" stroke="#B5545C" stroke-width="2" stroke-linecap="round" stroke-linejoin="round"/>
<path fill-rule="evenodd" clip-rule="evenodd" d="M140.72 96.9999C141.72 94.6299 143.72 93.1999 145.11 93.8099C146.5 94.4199 146.78 96.8099 145.75 99.1999C144.72 101.59 142.75 103 141.36 102.39C139.97 101.78 139.68 99.3799 140.72 96.9999Z" fill="#B5545C"/>
<path fill-rule="evenodd" clip-rule="evenodd" d="M164.47 102.41C165.47 100.04 167.47 98.61 168.86 99.21C170.25 99.81 170.53 102.21 169.5 104.6C168.47 106.99 166.5 108.4 165.11 107.79C163.72 107.18 163.43 104.77 164.47 102.41Z" fill="#B5545C"/>
<path d="M140.6 119.81C138.68 119.201 136.983 118.039 135.72 116.471C134.457 114.902 133.685 112.995 133.5 110.99" stroke="#B5545C" stroke-width="2" stroke-linecap="round" stroke-linejoin="round"/>
<path d="M135.11 130.77C130.936 129.987 126.964 128.368 123.433 126.011C119.901 123.653 116.883 120.605 114.56 117.05" stroke="#B5545C" stroke-width="2" stroke-linecap="round" stroke-linejoin="round"/>
<path d="M117.54 92.2C116.182 92.7116 114.742 92.9725 113.29 92.97C112.181 92.9697 111.078 92.8183 110.01 92.52" stroke="#B5545C" stroke-width="2" stroke-linecap="round" stroke-linejoin="round"/>
<path d="M110.94 88.13C109.657 87.7813 108.497 87.0807 107.591 86.1073C106.685 85.1339 106.069 83.9266 105.813 82.6218C105.557 81.3169 105.672 79.9665 106.143 78.723C106.614 77.4796 107.423 76.3927 108.48 75.5851C109.536 74.7776 110.797 74.2815 112.121 74.153C113.444 74.0245 114.778 74.2687 115.97 74.8579C117.162 75.4471 118.165 76.358 118.867 77.4875C119.568 78.6171 119.94 79.9203 119.94 81.25" stroke="#B5545C" stroke-width="2" stroke-linecap="round" stroke-linejoin="round"/>
<path d="M218 255.29L184.73 250.21L164.08 223.69" stroke="#B5545C" stroke-width="2" stroke-linecap="round" stroke-linejoin="round"/>
<path d="M231.26 174.55C232.5 171.85 235.94 165.93 234.75 163.35C233.56 160.77 225.32 157.28 226.33 154.81C227.34 152.34 231.92 145.66 231.92 145.66" stroke="#B5545C" stroke-width="2" stroke-linecap="round" stroke-linejoin="round"/>
<path d="M245.74 135.92L239.43 148.82" stroke="#B5545C" stroke-width="2" stroke-linecap="round" stroke-linejoin="round"/>
<path d="M253.24 147.2L248.11 154.48" stroke="#B5545C" stroke-width="2" stroke-linecap="round" stroke-linejoin="round"/>
<path d="M296.59 260.86L305.75 267.86" stroke="#B5545C" stroke-width="2" stroke-linecap="round" stroke-linejoin="round"/>
<path d="M300.84 282L294 275.68" stroke="#B5545C" stroke-width="2" stroke-linecap="round" stroke-linejoin="round"/>
<path fill-rule="evenodd" clip-rule="evenodd" d="M259.75 37.1699H271.28C271.82 37.1699 272.28 37.8099 272.28 38.5999V45.7899C272.28 46.5799 271.83 47.2099 271.28 47.2099H259.75C259.2 47.2099 258.75 46.5799 258.75 45.7899V38.5999C258.76 37.8099 259.2 37.1699 259.75 37.1699Z" fill="#FF3274"/>
<path fill-rule="evenodd" clip-rule="evenodd" d="M277.26 42.65V47.07C277.26 47.2 277.17 47.25 277.07 47.19L273.23 45L269.4 42.79C269.29 42.73 269.29 42.63 269.4 42.57L273.23 40.35L277.07 38.14C277.089 38.1263 277.111 38.1183 277.134 38.1171C277.158 38.1159 277.181 38.1214 277.201 38.1331C277.221 38.1447 277.237 38.162 277.248 38.1828C277.258 38.2035 277.263 38.2269 277.26 38.25V42.65Z" fill="#FF3274"/>
<path d="M251 42.1899C251 38.8277 251.997 35.5409 253.865 32.7453C255.733 29.9496 258.388 27.7707 261.494 26.484C264.601 25.1973 268.019 24.8607 271.317 25.5166C274.614 26.1725 277.643 27.7916 280.021 30.1691C282.398 32.5466 284.017 35.5757 284.673 38.8734C285.329 42.1711 284.993 45.5892 283.706 48.6956C282.419 51.8019 280.24 54.4569 277.445 56.3249C274.649 58.1929 271.362 59.1899 268 59.1899C263.491 59.1899 259.167 57.3989 255.979 54.2108C252.791 51.0226 251 46.6986 251 42.1899Z" stroke="#FF3274" stroke-width="2" stroke-linecap="round" stroke-linejoin="round"/>
<path d="M29.09 1H272.68C275.929 0.998688 279.147 1.63771 282.149 2.88055C285.151 4.12338 287.879 5.94567 290.177 8.24325C292.474 10.5408 294.297 13.2687 295.539 16.2709C296.782 19.273 297.421 22.4907 297.42 25.74V149.81C297.42 156.371 294.813 162.664 290.174 167.304C285.534 171.943 279.241 174.55 272.68 174.55H29.09C22.5303 174.547 16.2401 171.94 11.6026 167.3C6.96514 162.661 4.35999 156.37 4.35999 149.81V25.74C4.35867 22.4916 4.99736 19.2747 6.23958 16.2732C7.48179 13.2716 9.30318 10.5442 11.5997 8.24679C13.8962 5.94933 16.6229 4.12684 19.6239 2.88342C22.6249 1.63999 25.8416 1 29.09 1V1Z" stroke="#9B9B9B" stroke-width="2" stroke-linecap="round" stroke-linejoin="round"/>
<path d="M295.83 16.8701H6.19995" stroke="#9B9B9B" stroke-width="2" stroke-linecap="round" stroke-linejoin="round"/>
<path d="M22.14 9.22995C22.138 8.53334 22.3428 7.8518 22.7284 7.27163C23.114 6.69145 23.663 6.23873 24.306 5.97078C24.9491 5.70282 25.6571 5.63169 26.3406 5.76637C27.0241 5.90106 27.6522 6.23552 28.1455 6.7274C28.6388 7.21928 28.975 7.84646 29.1116 8.52955C29.2483 9.21263 29.1792 9.9209 28.913 10.5647C28.6469 11.2085 28.1957 11.7588 27.6167 12.146C27.0376 12.5333 26.3566 12.7399 25.66 12.74C24.7282 12.74 23.8344 12.3705 23.1745 11.7125C22.5147 11.0545 22.1427 10.1618 22.14 9.22995V9.22995Z" stroke="#FF3274" stroke-width="2" stroke-linecap="round" stroke-linejoin="round"/>
<path d="M36 9.22995C35.998 8.53334 36.2028 7.8518 36.5884 7.27163C36.974 6.69145 37.523 6.23873 38.166 5.97078C38.809 5.70282 39.5171 5.63169 40.2006 5.76637C40.8841 5.90106 41.5122 6.23552 42.0055 6.7274C42.4988 7.21928 42.835 7.84646 42.9716 8.52955C43.1083 9.21263 43.0391 9.9209 42.773 10.5647C42.5069 11.2085 42.0557 11.7588 41.4767 12.146C40.8976 12.5333 40.2166 12.7399 39.52 12.74C39.0582 12.7413 38.6007 12.6515 38.1737 12.4756C37.7467 12.2998 37.3586 12.0415 37.0316 11.7154C36.7046 11.3894 36.4452 11.002 36.2681 10.5755C36.0911 10.149 36 9.69173 36 9.22995V9.22995Z" stroke="#FF3274" stroke-width="2" stroke-linecap="round" stroke-linejoin="round"/>
<path d="M49.89 9.22995C49.888 8.53334 50.0928 7.8518 50.4784 7.27163C50.864 6.69145 51.413 6.23873 52.056 5.97078C52.6991 5.70282 53.4071 5.63169 54.0906 5.76637C54.7741 5.90106 55.4022 6.23552 55.8955 6.7274C56.3888 7.21928 56.725 7.84646 56.8616 8.52955C56.9983 9.21263 56.9292 9.9209 56.663 10.5647C56.3969 11.2085 55.9457 11.7588 55.3667 12.146C54.7876 12.5333 54.1066 12.7399 53.41 12.74C52.4782 12.74 51.5844 12.3705 50.9245 11.7125C50.2647 11.0545 49.8927 10.1618 49.89 9.22995V9.22995Z" stroke="#FF3274" stroke-width="2" stroke-linecap="round" stroke-linejoin="round"/>
<path d="M486.2 300.18L393.69 584" stroke="#AADAF1" stroke-width="2" stroke-linecap="round" stroke-linejoin="round"/>
<path d="M561.31 300.18L468.8 584" stroke="#AADAF1" stroke-width="2" stroke-linecap="round" stroke-linejoin="round"/>
<path d="M561.31 300.18L653.81 584" stroke="#AADAF1" stroke-width="2" stroke-linecap="round" stroke-linejoin="round"/>
<path d="M486.2 300.18L578.7 584" stroke="#AADAF1" stroke-width="2" stroke-linecap="round" stroke-linejoin="round"/>
<path fill-rule="evenodd" clip-rule="evenodd" d="M326 115.4H469.39C472.358 115.4 475.204 116.579 477.302 118.677C479.401 120.776 480.58 123.622 480.58 126.59V245C480.58 247.968 479.401 250.814 477.302 252.912C475.204 255.011 472.358 256.19 469.39 256.19H326C323.036 256.185 320.195 255.003 318.1 252.905C316.006 250.807 314.83 247.964 314.83 245V126.59C314.83 123.626 316.006 120.782 318.1 118.684C320.195 116.586 323.036 115.405 326 115.4Z" fill="#AADAF1"/>
<path fill-rule="evenodd" clip-rule="evenodd" d="M326 115.39C324.531 115.389 323.076 115.677 321.719 116.238C320.361 116.799 319.127 117.623 318.088 118.661C317.049 119.699 316.225 120.932 315.662 122.289C315.1 123.646 314.81 125.101 314.81 126.57V245C314.823 247.959 316.008 250.792 318.105 252.88C320.202 254.968 323.041 256.14 326 256.14H333.19C333.13 255.46 332.97 254.8 332.97 254.14V115.39H326Z" fill="#8DC5E0"/>
<path fill-rule="evenodd" clip-rule="evenodd" d="M377.82 221.28H426.23L453.34 282.94H403.22L377.82 221.28Z" fill="#8DC5E0"/>
<path fill-rule="evenodd" clip-rule="evenodd" d="M539.54 239.49H579.42V282.94H539.54V239.49Z" fill="#8DC5E0"/>
<path d="M568.79 261.21C568.79 259.175 569.394 257.185 570.524 255.493C571.655 253.801 573.262 252.482 575.142 251.703C577.023 250.924 579.091 250.721 581.088 251.118C583.084 251.515 584.917 252.495 586.356 253.934C587.795 255.373 588.775 257.206 589.172 259.202C589.569 261.199 589.366 263.268 588.587 265.148C587.808 267.028 586.489 268.635 584.797 269.766C583.105 270.896 581.115 271.5 579.08 271.5C576.351 271.5 573.734 270.416 571.804 268.486C569.874 266.556 568.79 263.939 568.79 261.21V261.21Z" stroke="#8DC5E0" stroke-width="2" stroke-linecap="round" stroke-linejoin="round"/>
<path d="M539.54 246.89H579.08" stroke="#AADAF1" stroke-width="2" stroke-linecap="round" stroke-linejoin="round"/>
<path opacity="0.25" fill-rule="evenodd" clip-rule="evenodd" d="M29.22 1H272.81C279.371 1 285.664 3.60653 290.304 8.24618C294.943 12.8858 297.55 19.1785 297.55 25.74V149.81C297.55 156.371 294.943 162.664 290.304 167.304C285.664 171.943 279.371 174.55 272.81 174.55H29.22C22.6603 174.547 16.3701 171.94 11.7326 167.3C7.09515 162.661 4.48999 156.37 4.48999 149.81V25.74C4.48868 22.4916 5.12737 19.2747 6.36958 16.2732C7.61179 13.2716 9.43318 10.5442 11.7297 8.24678C14.0262 5.94933 16.7529 4.12684 19.7539 2.88342C22.755 1.63999 25.9716 1 29.22 1Z" fill="white"/>
</g>
<defs>
<clipPath id="clip0">
<rect width="654.81" height="628.4" fill="white"/>
</clipPath>
</defs>
</svg>
