<svg width="322" height="723" viewBox="0 0 322 723" fill="none" xmlns="http://www.w3.org/2000/svg">
<path d="M33.8039 290.558H92.8776C93.429 290.558 93.9578 290.777 94.3476 291.166C94.7375 291.555 94.9565 292.083 94.9565 292.634V321.702C94.9565 322.253 94.7375 322.781 94.3476 323.171C93.9578 323.56 93.429 323.779 92.8776 323.779H33.8039C33.2525 323.779 32.7237 323.56 32.3338 323.171C31.9439 322.781 31.7249 322.253 31.7249 321.702V292.634C31.7249 292.083 31.9439 291.555 32.3338 291.166C32.7237 290.777 33.2525 290.558 33.8039 290.558Z" stroke="#AADAF1" stroke-width="2" stroke-linecap="round" stroke-linejoin="round"/>
<path d="M65.4873 257.275H124.53C125.081 257.275 125.61 257.493 126 257.883C126.39 258.272 126.609 258.8 126.609 259.351V288.419C126.609 288.97 126.39 289.498 126 289.887C125.61 290.277 125.081 290.496 124.53 290.496H65.4873C64.9359 290.496 64.4071 290.277 64.0172 289.887C63.6274 289.498 63.4083 288.97 63.4083 288.419V259.351C63.4083 258.8 63.6274 258.272 64.0172 257.883C64.4071 257.493 64.9359 257.275 65.4873 257.275Z" stroke="#AADAF1" stroke-width="2" stroke-linecap="round" stroke-linejoin="round"/>
<path d="M97.0979 290.558H156.182C156.733 290.558 157.262 290.777 157.652 291.166C158.042 291.555 158.261 292.083 158.261 292.634V321.702C158.261 322.253 158.042 322.781 157.652 323.171C157.262 323.56 156.733 323.779 156.182 323.779H97.0979C96.5465 323.779 96.0177 323.56 95.6278 323.171C95.238 322.781 95.0189 322.253 95.0189 321.702V292.634C95.0189 292.083 95.238 291.555 95.6278 291.166C96.0177 290.777 96.5465 290.558 97.0979 290.558Z" stroke="#AADAF1" stroke-width="2" stroke-linecap="round" stroke-linejoin="round"/>
<path d="M3.11839 323.903H62.2337C62.785 323.903 63.3138 324.122 63.7037 324.511C64.0936 324.901 64.3126 325.429 64.3126 325.98V355.048C64.3126 355.599 64.0936 356.127 63.7037 356.516C63.3138 356.905 62.785 357.124 62.2337 357.124H3.11839C2.56702 357.124 2.03822 356.905 1.64834 356.516C1.25846 356.127 1.03943 355.599 1.03943 355.048V325.98C1.03943 325.429 1.25846 324.901 1.64834 324.511C2.03822 324.122 2.56702 323.903 3.11839 323.903V323.903Z" stroke="#AADAF1" stroke-width="2" stroke-linecap="round" stroke-linejoin="round"/>
<path fill-rule="evenodd" clip-rule="evenodd" d="M117.274 659.859H148.032V690.038H117.274V659.859Z" fill="#F77F89"/>
<path fill-rule="evenodd" clip-rule="evenodd" d="M232.844 658.988H263.612V689.156H232.844V658.988Z" fill="#F77F89"/>
<path fill-rule="evenodd" clip-rule="evenodd" d="M62.7223 75.3491L83.1585 71.0719C84.5641 70.7727 86.0313 71.0416 87.239 71.8198C88.4468 72.598 89.2968 73.8221 89.6032 75.2245L98.0126 114.155C98.1586 114.845 98.1668 115.556 98.0366 116.248C97.9064 116.941 97.6405 117.601 97.2541 118.19C96.8677 118.78 96.3685 119.287 95.7851 119.683C95.2017 120.079 94.5457 120.356 93.8547 120.498L73.4393 124.786C72.0336 125.085 70.5665 124.816 69.3587 124.038C68.151 123.26 67.301 122.036 66.9945 120.633L58.5435 81.7026C58.3977 81.0112 58.3903 80.2979 58.5216 79.6036C58.653 78.9094 58.9206 78.2479 59.309 77.6574C59.6974 77.0668 60.1989 76.5588 60.7847 76.1627C61.3705 75.7665 62.029 75.4901 62.7223 75.3491V75.3491Z" fill="#9B9B9B"/>
<path fill-rule="evenodd" clip-rule="evenodd" d="M69.3438 138.074C66.8283 134.098 47.8786 97.1502 53.7516 94.015C59.6247 90.8798 62.8991 94.15 64.3335 97.5447C67.452 94.233 73.8864 90.2777 76.5474 93.1637C79.6659 96.4754 77.0776 101.77 74.7387 103.836C77.4102 102.902 79.8738 102.351 82.0151 105.341C84.749 109.058 81.2355 119.699 79.3644 121.298L89.2395 130.641C89.2395 130.641 71.849 142.009 69.3438 138.074Z" fill="#F77F89"/>
<path fill-rule="evenodd" clip-rule="evenodd" d="M237.895 365.793C237.895 349.639 254.049 336.548 273.986 336.548C293.923 336.548 310.067 349.639 310.067 365.793C310.067 381.946 293.913 395.037 273.986 395.037C254.059 395.037 237.895 381.946 237.895 365.793Z" fill="#BF9111"/>
<path fill-rule="evenodd" clip-rule="evenodd" d="M206.857 32.1825C234.642 32.1825 248.436 57.4304 249.766 66.2028C251.097 74.9751 249.382 93.4542 251.845 100.856C258.685 120.996 283.591 131.887 283.591 152.266C283.591 199.418 231.617 185.767 215.806 185.165C199.996 184.562 158.375 183.234 158.375 154.944C158.375 143.69 166.036 143.69 166.171 129.052C166.286 116.678 159.363 113.179 159.363 83.5295C159.435 71.4039 175.911 32.0372 206.857 32.1825Z" fill="black"/>
<path fill-rule="evenodd" clip-rule="evenodd" d="M167.886 277.477C167.138 269.421 162.273 188.196 186.743 154.975C185.93 152.285 185.329 149.536 184.944 146.753C175.974 153.21 142.43 187.241 138.168 192.899C134.29 187.978 92.5137 129.509 90.4347 128.814C88.3558 128.118 67.9404 137.586 67.4934 139.756C67.0464 141.926 117.222 238.557 129.862 242.626C135.164 244.329 142.648 239.107 144.987 238.349C145.309 243.54 98.5011 379.538 143.178 380.576C169.737 347.49 168.624 285.492 167.886 277.477Z" fill="#F7D167"/>
<path fill-rule="evenodd" clip-rule="evenodd" d="M156.785 302.154L94.5928 663.638L149.54 663.41L190.35 490.496L210.765 666.327L263.467 665.652L267.074 302.611L156.785 302.154Z" fill="#3B4161"/>
<path fill-rule="evenodd" clip-rule="evenodd" d="M238.841 310.781C233.135 311.996 161.421 310.542 154.872 306.898C148.323 303.254 149.675 291.45 165.818 287.464C160.101 286.042 147.96 279.086 164.331 276.646C167.252 247.422 154.571 140.441 204.996 138.572C240.64 133.33 246.575 164.588 246.575 164.588C246.575 164.588 244.548 309.566 238.841 310.781Z" fill="#6367FD"/>
<path fill-rule="evenodd" clip-rule="evenodd" d="M204.985 45.6787C185.828 45.6787 170.298 63.7114 170.298 85.9486C170.298 108.186 185.828 126.177 204.985 126.177C213.084 126.05 220.825 122.821 226.607 117.155C225.889 107.065 225.796 96.8181 227.355 91.4612C229.767 84.817 228.894 87.5993 226.42 87.3086L228.592 85.4607C228.592 80.8409 229.361 83.9969 233.987 83.9969L239.475 83.7685C238.53 62.5694 223.488 45.6787 204.985 45.6787Z" fill="#F77F89"/>
<path fill-rule="evenodd" clip-rule="evenodd" d="M165.381 78.8996C172.803 76.9479 178.614 73.3663 185.017 61.9777C192.647 68.9852 199.133 69.1202 210.464 66.8986C209.798 72.4319 209.258 78.692 216.545 79.4394C223.831 80.1869 245.369 89.551 245.369 89.551L244.33 65.0091L225.318 43.727L203.114 39.6782L183.541 48.8451L171.317 64.6873C171.317 64.6873 158.001 80.7994 165.381 78.8996Z" fill="black"/>
<path fill-rule="evenodd" clip-rule="evenodd" d="M214.57 82.0968C214.57 79.1106 215.456 76.1914 217.116 73.7081C218.777 71.2247 221.137 69.2887 223.899 68.1445C226.661 67.0003 229.7 66.6994 232.633 67.2797C235.566 67.86 238.261 69.2955 240.378 71.4049C242.494 73.5143 243.937 76.2028 244.524 79.1309C245.111 82.0589 244.816 85.0951 243.676 87.8557C242.536 90.6163 240.603 92.9776 238.119 94.6411C235.636 96.3046 232.715 97.1957 229.725 97.2019C227.736 97.2074 225.765 96.8206 223.926 96.0638C222.087 95.307 220.415 94.1951 219.007 92.7918C217.599 91.3885 216.483 89.7214 215.721 87.8861C214.96 86.0508 214.568 84.0834 214.57 82.0968V82.0968Z" fill="#F77F89"/>
<path fill-rule="evenodd" clip-rule="evenodd" d="M199.726 120.643C201.191 127.776 199.996 137.015 198.26 143.607C203.385 146.535 223.904 147.542 230.141 143.057C227.761 134.368 224.133 102.569 227.366 91.4714C219.226 90.7655 198.26 113.501 199.726 120.643Z" fill="#F77F89"/>
<path fill-rule="evenodd" clip-rule="evenodd" d="M239.725 339.475C237.489 343.151 235.06 346.707 232.449 350.127C232.449 350.127 225.619 347.968 223.748 350.469C221.877 352.971 209.393 368.741 215.526 374.108C221.659 379.475 228.54 366.073 230.474 364.329C236.84 370.12 242.842 376.299 248.446 382.829C248.446 382.829 248.394 373.392 249.434 370.07C250.473 366.748 256.876 357.882 259.018 355.536C261.159 353.189 243.238 333.579 239.725 339.475Z" fill="#F77F89"/>
<path fill-rule="evenodd" clip-rule="evenodd" d="M232.334 143.659C229.081 151.861 225.193 159.875 215.121 165.751C214.549 174.939 223.135 300.877 230.255 313.916C233.136 319.027 236.715 323.712 240.889 327.838C238.696 333.714 236.731 339.04 237.542 340.742C238.582 342.964 256.637 358.391 259.08 357.716C260.681 357.28 265.224 352.587 269.049 348.373C286.72 358.546 303.029 365.793 303.352 375.292C303.352 382.081 301.065 384.21 298.269 387.48C302.302 385.486 311.979 375.302 312.187 362.772C312.447 346.971 297.198 319.335 294.516 312.328C299.495 306.68 316.917 282.751 321.023 261.718C310.483 220.825 268.851 144.791 232.334 143.659Z" fill="#F7D167"/>
<path d="M245.38 218.583C248.956 224.261 273.789 261.687 273.789 261.687C273.789 261.687 250.515 309.369 242.459 325.98" stroke="#FF3274" stroke-width="2" stroke-linecap="round" stroke-linejoin="round"/>
<path d="M309.817 286.405C305.442 284.28 301.801 280.9 299.359 276.698C296.917 272.495 295.785 267.661 296.109 262.812C296.433 257.964 298.197 253.322 301.175 249.481C304.154 245.639 308.213 242.772 312.832 241.246" stroke="#FF3274" stroke-width="2" stroke-linecap="round" stroke-linejoin="round"/>
<path d="M282.406 253.371L273.778 261.677" stroke="#FF3274" stroke-width="2" stroke-linecap="round" stroke-linejoin="round"/>
<path d="M284.433 266.587L273.778 261.064" stroke="#FF3274" stroke-width="2" stroke-linecap="round" stroke-linejoin="round"/>
<path d="M242.771 331.575C245.182 334.316 260.442 345.144 264.6 346.909" stroke="#FF3274" stroke-width="2" stroke-linecap="round" stroke-linejoin="round"/>
<path d="M115.881 226.711C118.166 224.338 121.108 222.7 124.331 222.009C127.554 221.318 130.911 221.604 133.97 222.832C137.028 224.059 139.65 226.171 141.498 228.897C143.347 231.623 144.337 234.839 144.342 238.131V238.515" stroke="#FF3274" stroke-width="2" stroke-linecap="round" stroke-linejoin="round"/>
<path d="M138.116 192.878L129.582 205.554" stroke="#FF3274" stroke-width="2" stroke-linecap="round" stroke-linejoin="round"/>
<path d="M145.725 202.844L138.375 192.66" stroke="#FF3274" stroke-width="2" stroke-linecap="round" stroke-linejoin="round"/>
<path d="M96.8899 136.673L73.0443 151.84" stroke="#FF3274" stroke-width="2" stroke-linecap="round" stroke-linejoin="round"/>
<path d="M190.287 490.662C188.791 480.529 183.094 393.792 187.107 363.602" stroke="#737999" stroke-width="2" stroke-linecap="round" stroke-linejoin="round"/>
<path d="M248.987 513.885L265.005 507.511L247.771 496.776" stroke="#737999" stroke-width="2" stroke-linecap="round" stroke-linejoin="round"/>
<path d="M167.886 516.844L184.695 514.362L173.76 502.631" stroke="#737999" stroke-width="2" stroke-linecap="round" stroke-linejoin="round"/>
<path d="M152.876 324.858C158.074 325.564 207.969 328.315 240.193 326.758" stroke="#737999" stroke-width="2" stroke-linecap="round" stroke-linejoin="round"/>
<path d="M98.1063 643.021L154.696 641.422" stroke="#737999" stroke-width="2" stroke-linecap="round" stroke-linejoin="round"/>
<path d="M208.478 646.945L263.643 645.377" stroke="#737999" stroke-width="2" stroke-linecap="round" stroke-linejoin="round"/>
<path d="M230.297 364.474L253.353 387.719" stroke="#737999" stroke-width="2" stroke-linecap="round" stroke-linejoin="round"/>
<path d="M216.347 350.418L220.661 354.757" stroke="#737999" stroke-width="2" stroke-linecap="round" stroke-linejoin="round"/>
<path d="M227.054 666.119L211.015 327.194" stroke="#737999" stroke-width="2" stroke-linecap="round" stroke-linejoin="round"/>
<path d="M186.608 433.885L130.975 663.483" stroke="#737999" stroke-width="2" stroke-linecap="round" stroke-linejoin="round"/>
<path fill-rule="evenodd" clip-rule="evenodd" d="M198.26 85.8031C198.26 83.7268 199.113 82.0969 200.173 82.0969C201.233 82.0969 202.096 83.758 202.096 85.8031C202.096 87.8483 201.233 89.4989 200.173 89.4989C199.113 89.4989 198.26 87.8379 198.26 85.8031Z" fill="#B5545C"/>
<path fill-rule="evenodd" clip-rule="evenodd" d="M176.285 85.8031C176.285 83.7268 177.148 82.0969 178.208 82.0969C179.269 82.0969 180.121 83.758 180.121 85.8031C180.121 87.8483 179.269 89.4989 178.208 89.4989C177.148 89.4989 176.285 87.8379 176.285 85.8031Z" fill="#B5545C"/>
<path d="M187.242 86.4883C187.554 89.3743 186.93 95.8317 184.747 98.6554" stroke="#B5545C" stroke-width="2" stroke-linecap="round" stroke-linejoin="round"/>
<path d="M201.389 104.386C201.485 104.766 201.534 105.157 201.535 105.549C201.539 106.295 201.361 107.03 201.016 107.692C200.671 108.354 200.169 108.921 199.554 109.345C198.939 109.768 198.23 110.036 197.488 110.123C196.746 110.21 195.994 110.116 195.298 109.847" stroke="#B5545C" stroke-width="2" stroke-linecap="round" stroke-linejoin="round"/>
<path d="M200.214 125.762C201.792 126.016 203.387 126.144 204.985 126.146C209.115 126.14 213.198 125.27 216.971 123.592" stroke="#B5545C" stroke-width="2" stroke-linecap="round" stroke-linejoin="round"/>
<path d="M220.37 80.2802C220.656 78.434 221.467 76.7084 222.705 75.3082C223.943 73.9079 225.558 72.8916 227.357 72.3798C229.156 71.868 231.064 71.8822 232.855 72.4206C234.646 72.959 236.246 73.9991 237.463 75.4175C238.68 76.836 239.465 78.5733 239.724 80.4236C239.983 82.2738 239.705 84.1594 238.923 85.8568C238.141 87.5541 236.889 88.992 235.314 90C233.739 91.0081 231.908 91.5439 230.037 91.5441C229.102 91.5404 228.171 91.4077 227.272 91.1496" stroke="#B5545C" stroke-width="2" stroke-linecap="round" stroke-linejoin="round"/>
<path d="M292.572 314.446L270.899 345.59" stroke="#FF3274" stroke-width="2" stroke-linecap="round" stroke-linejoin="round"/>
<path fill-rule="evenodd" clip-rule="evenodd" d="M281.793 38.5879H293.788C294.35 38.5879 294.828 39.2523 294.828 40.0724V47.5368C294.828 48.3569 294.36 49.0109 293.788 49.0109H281.793C281.231 49.0109 280.753 48.3569 280.753 47.5368V40.0724C280.764 39.2523 281.231 38.5879 281.793 38.5879Z" fill="#FF3274"/>
<path fill-rule="evenodd" clip-rule="evenodd" d="M300.005 44.2773V48.8659C300.005 49.0009 299.911 49.0528 299.807 48.9905L295.815 46.7169L291.834 44.4226C291.72 44.3603 291.72 44.2565 291.834 44.1942L295.815 41.8895L299.807 39.5952C299.827 39.581 299.85 39.5727 299.874 39.5715C299.898 39.5702 299.922 39.576 299.943 39.5881C299.964 39.6002 299.981 39.6181 299.992 39.6396C300.003 39.6612 300.007 39.6854 300.005 39.7094V44.2773Z" fill="#FF3274"/>
<path d="M272.718 43.7995C272.718 40.3089 273.755 36.8967 275.696 33.9944C277.638 31.0921 280.398 28.8301 283.627 27.4943C286.856 26.1585 290.409 25.809 293.837 26.49C297.265 27.171 300.414 28.8518 302.885 31.32C305.356 33.7882 307.039 36.9329 307.721 40.3564C308.403 43.7799 308.053 47.3284 306.716 50.5533C305.378 53.7781 303.113 56.5345 300.207 58.4737C297.301 60.413 293.884 61.448 290.389 61.448C285.703 61.448 281.208 59.5887 277.894 56.2789C274.58 52.9691 272.718 48.4802 272.718 43.7995Z" stroke="#FF3274" stroke-width="2" stroke-linecap="round" stroke-linejoin="round"/>
<path d="M42.0366 1.03809H295.213C302.033 1.03809 308.574 3.74406 313.397 8.56072C318.22 13.3774 320.929 19.9102 320.929 26.722V155.525C320.929 162.337 318.22 168.87 313.397 173.687C308.574 178.503 302.033 181.209 295.213 181.209H42.0366C35.2161 181.209 28.675 178.503 23.8522 173.687C19.0293 168.87 16.3199 162.337 16.3199 155.525V26.722C16.3199 19.9102 19.0293 13.3774 23.8522 8.56072C28.675 3.74406 35.2161 1.03809 42.0366 1.03809V1.03809Z" stroke="#9B9B9B" stroke-width="2" stroke-linecap="round" stroke-linejoin="round"/>
<path d="M319.308 17.5137H18.2428" stroke="#9B9B9B" stroke-width="2" stroke-linecap="round" stroke-linejoin="round"/>
<path d="M34.8122 9.57176C34.8122 8.84857 35.0271 8.14164 35.4296 7.54047C35.8321 6.9393 36.4042 6.47093 37.0734 6.19465C37.7426 5.91837 38.4788 5.84662 39.1888 5.98846C39.8989 6.13031 40.5508 6.47938 41.0621 6.99148C41.5734 7.50358 41.9211 8.15568 42.0611 8.86523C42.2011 9.57477 42.1272 10.3099 41.8486 10.9774C41.5701 11.645 41.0995 12.215 40.4964 12.6152C39.8933 13.0155 39.1849 13.2281 38.4608 13.2261C37.9808 13.2261 37.5055 13.1315 37.0621 12.9477C36.6188 12.7639 36.2161 12.4946 35.8772 12.1551C35.5382 11.8156 35.2697 11.4127 35.0869 10.9694C34.9042 10.5261 34.8108 10.0512 34.8122 9.57176Z" stroke="#FF3274" stroke-width="2" stroke-linecap="round" stroke-linejoin="round"/>
<path d="M49.2297 9.57178C49.2297 8.84903 49.4443 8.1425 49.8464 7.54156C50.2484 6.94061 50.8199 6.47223 51.4885 6.19565C52.1571 5.91906 52.8928 5.8467 53.6025 5.9877C54.3123 6.1287 54.9643 6.47674 55.476 6.9878C55.9877 7.49886 56.3362 8.15 56.4774 8.85886C56.6186 9.56772 56.5461 10.3025 56.2692 10.9702C55.9922 11.6379 55.5232 12.2087 54.9215 12.6102C54.3198 13.0118 53.6124 13.2261 52.8887 13.2261C51.9183 13.2261 50.9876 12.8411 50.3014 12.1558C49.6152 11.4704 49.2297 10.541 49.2297 9.57178Z" stroke="#FF3274" stroke-width="2" stroke-linecap="round" stroke-linejoin="round"/>
<path d="M63.6577 9.57178C63.6577 8.84903 63.8723 8.1425 64.2744 7.54156C64.6764 6.94061 65.2479 6.47223 65.9165 6.19565C66.5851 5.91906 67.3208 5.8467 68.0305 5.9877C68.7403 6.1287 69.3923 6.47674 69.904 6.9878C70.4157 7.49886 70.7642 8.15 70.9054 8.85886C71.0466 9.56772 70.9741 10.3025 70.6972 10.9702C70.4202 11.6379 69.9512 12.2087 69.3495 12.6102C68.7478 13.0118 68.0404 13.2261 67.3167 13.2261C66.8358 13.2274 66.3594 13.1339 65.9149 12.9507C65.4703 12.7675 65.0664 12.4984 64.7264 12.1588C64.3863 11.8192 64.1169 11.4158 63.9335 10.9718C63.7501 10.5279 63.6564 10.052 63.6577 9.57178V9.57178Z" stroke="#FF3274" stroke-width="2" stroke-linecap="round" stroke-linejoin="round"/>
<path fill-rule="evenodd" clip-rule="evenodd" d="M232.844 677.612L263.612 677.353L263.311 721.204L168.198 720.602C168.562 711.58 186.057 695.551 207.387 692.375C228.717 689.198 232.844 680.477 232.844 677.612Z" fill="#9B9B9B"/>
<path d="M185.443 700.503C189.301 703.815 192.664 707.661 195.433 711.923" stroke="#4E4242" stroke-width="2" stroke-linecap="round" stroke-linejoin="round"/>
<path d="M199.892 694.793C203.755 698.1 207.119 701.946 209.882 706.213" stroke="#4E4242" stroke-width="2" stroke-linecap="round" stroke-linejoin="round"/>
<path d="M207.688 693.89C180.797 664.895 232.168 657.482 207.782 693.89" stroke="#4E4242" stroke-width="2" stroke-linecap="round" stroke-linejoin="round"/>
<path d="M207.896 693.838C236.607 659.964 252.978 716.086 207.896 693.942" stroke="#4E4242" stroke-width="2" stroke-linecap="round" stroke-linejoin="round"/>
<path d="M263.592 684.962H228.093" stroke="#4E4242" stroke-width="2" stroke-linecap="round" stroke-linejoin="round"/>
<path d="M263.342 721.079L168.635 720.602" stroke="#4E4242" stroke-width="2" stroke-linecap="round" stroke-linejoin="round"/>
<path fill-rule="evenodd" clip-rule="evenodd" d="M117.274 678.494L148.033 678.235L147.731 722.086L52.629 721.515C52.9928 712.494 70.4872 696.465 91.8174 693.288C113.148 690.111 117.274 681.36 117.274 678.494Z" fill="#9B9B9B"/>
<path d="M69.8427 701.386C73.7 704.698 77.0637 708.543 79.8321 712.805" stroke="#4E4242" stroke-width="2" stroke-linecap="round" stroke-linejoin="round"/>
<path d="M84.2914 695.676C88.1538 698.983 91.5182 702.829 94.2808 707.095" stroke="#4E4242" stroke-width="2" stroke-linecap="round" stroke-linejoin="round"/>
<path d="M92.0875 694.762C65.1961 665.777 116.567 658.365 92.181 694.762" stroke="#4E4242" stroke-width="2" stroke-linecap="round" stroke-linejoin="round"/>
<path d="M92.285 694.721C120.995 660.835 137.357 716.968 92.285 694.824" stroke="#4E4242" stroke-width="2" stroke-linecap="round" stroke-linejoin="round"/>
<path d="M147.981 685.844H112.482" stroke="#4E4242" stroke-width="2" stroke-linecap="round" stroke-linejoin="round"/>
<path d="M147.731 721.962L53.0135 721.515" stroke="#4E4242" stroke-width="2" stroke-linecap="round" stroke-linejoin="round"/>
<path fill-rule="evenodd" clip-rule="evenodd" d="M58.6891 116.346C57.2962 113.044 57.9094 100.534 65.5081 96.3818Z" fill="#F77F89"/>
<path d="M58.6891 116.346C57.2962 113.044 57.9094 100.534 65.5081 96.3818" stroke="#B5545C" stroke-width="2" stroke-linecap="round" stroke-linejoin="round"/>
<path fill-rule="evenodd" clip-rule="evenodd" d="M68.9175 120.342C68.0651 116.19 70.2896 107.459 74.8114 104.376Z" fill="#F77F89"/>
<path d="M68.9175 120.342C68.0651 116.19 70.2896 107.459 74.8114 104.376" stroke="#B5545C" stroke-width="2" stroke-linecap="round" stroke-linejoin="round"/>
<path d="M215.256 165.679C221.95 160.643 229.548 150.989 232.168 144.085" stroke="#FF3274" stroke-width="2" stroke-linecap="round" stroke-linejoin="round"/>
<path d="M170.807 288.43C190.443 292.676 213.832 291.191 225.266 289.914" stroke="#4C4FD9" stroke-width="2" stroke-linecap="round" stroke-linejoin="round"/>
<path opacity="0.26" fill-rule="evenodd" clip-rule="evenodd" d="M42.1716 1.03809H295.368C302.189 1.03809 308.73 3.74406 313.553 8.56072C318.376 13.3774 321.085 19.9102 321.085 26.722V155.525C321.085 162.337 318.376 168.87 313.553 173.687C308.73 178.503 302.189 181.209 295.368 181.209H42.1716C35.3511 181.209 28.8099 178.503 23.9871 173.687C19.1643 168.87 16.4548 162.337 16.4548 155.525V26.722C16.4548 19.9102 19.1643 13.3774 23.9871 8.56072C28.8099 3.74406 35.3511 1.03809 42.1716 1.03809V1.03809Z" fill="white"/>
</svg>
