<svg width="733" height="792" viewBox="0 0 733 792" fill="none" xmlns="http://www.w3.org/2000/svg">
<g clip-path="url(#clip0)">
<path fill-rule="evenodd" clip-rule="evenodd" d="M403.717 84.0027C481.927 91.655 569.504 71.0199 626.799 124.762C685.033 179.385 690.77 268.077 684.809 347.663C679.335 420.748 648.24 488.349 595.734 539.525C543.925 590.022 476.092 621.511 403.717 621.635C331.22 621.759 270.868 581.094 211.039 540.185C129.958 484.744 19.4897 444.447 3.03906 347.663C-14.4062 245.028 45.1884 133.628 132.203 76.3691C210.81 24.6426 310.042 74.8374 403.717 84.0027Z" fill="#EFF2F8"/>
<g clip-path="url(#clip1)">
<path fill-rule="evenodd" clip-rule="evenodd" d="M694.621 448.902C632.775 448.004 602.268 670.897 607.475 686.929C608.652 690.576 611.482 694.567 615.101 698.392H669.432C677.658 680.864 689.437 645.175 698.673 605.749L683.164 597.09L702.803 587.212C707.099 566.335 710.463 545.159 711.895 525.712L696.664 522.142L705.056 510.046L695.42 507.796L711.895 489.957C710.13 470.599 705.045 455.509 694.621 448.902Z" fill="#AADAF1"/>
<path d="M694.466 448.913L638.17 698.403" stroke="#72A5BD" stroke-width="2" stroke-linecap="round" stroke-linejoin="round"/>
<path fill-rule="evenodd" clip-rule="evenodd" d="M582.819 395.573C507.351 423.668 559.739 671.03 574.804 697.661H654.667C654.778 697.45 654.945 697.284 655.045 697.073C663.904 679.035 661.772 556.978 637.704 473.703L617.855 474.158L631.388 454.445C619.598 422.104 603.801 398.567 582.819 395.573Z" fill="#AADAF1"/>
<path d="M514.612 698.404H731.067" stroke="#72A5BD" stroke-width="2" stroke-linecap="round" stroke-linejoin="round"/>
<path d="M582.641 395.651L619.187 697.816" stroke="#72A5BD" stroke-width="2" stroke-linecap="round" stroke-linejoin="round"/>
<path fill-rule="evenodd" clip-rule="evenodd" d="M570.474 666.34C578.223 671.972 601.78 690.964 603.057 696.12C604.322 701.275 591.489 735.612 588.736 738.095C585.972 740.567 558.684 747.175 557.397 748.938C556.098 750.701 557.141 756.089 558.44 758.739C559.728 761.389 601.48 758.395 601.48 758.395C601.48 758.395 655.666 704.934 654.978 700.965C654.29 696.996 593.509 642.215 593.509 642.215C593.509 642.215 562.725 660.708 570.474 666.34Z" fill="#EF6A75"/>
<path fill-rule="evenodd" clip-rule="evenodd" d="M630.655 676.44C628.579 690.454 621.23 711.597 598.194 715.666C594.608 726.066 590.223 736.731 588.714 738.084C585.96 740.556 558.684 747.164 557.385 748.927C556.098 750.69 557.141 756.078 558.429 758.728C559.728 761.378 601.447 758.384 601.447 758.384C601.447 758.384 655.666 704.945 654.978 700.976C654.7 699.302 643.221 688.237 630.655 676.44Z" fill="#6367FD"/>
<path fill-rule="evenodd" clip-rule="evenodd" d="M301.576 713.36C298.811 720.6 269.304 790.448 266.162 791.967C263.02 793.475 175.619 750.845 174.92 746.643C174.22 742.441 178.206 733.527 181.403 734.159C214.807 740.834 255.449 743.084 259.879 734.669C264.308 726.265 270.003 706.697 270.003 706.697C270.003 706.697 304.34 706.12 301.576 713.36Z" fill="#EF6A75"/>
<path fill-rule="evenodd" clip-rule="evenodd" d="M181.403 734.159C178.206 733.516 174.22 742.43 174.92 746.632C175.619 750.834 263.02 793.452 266.162 791.944C267.561 791.268 274.377 776.578 281.526 760.38C254.539 764.449 240.185 751.821 234.101 740.013C218.781 739.902 199.154 737.707 181.403 734.159Z" fill="#6367FD"/>
<path fill-rule="evenodd" clip-rule="evenodd" d="M384.204 512.297C473.393 622.735 560.05 681.574 560.05 681.574L606.199 634.975L472.993 480.178C472.993 480.178 483.917 360.682 460.77 338.775C437.624 316.867 328.119 442.859 384.204 512.297Z" fill="#C4C4C4"/>
<path fill-rule="evenodd" clip-rule="evenodd" d="M346.625 331.646L255.149 705.011L304.739 729.392C304.739 729.392 387.789 510.956 400.067 497.673C425.334 470.355 466.343 372.058 462.757 334.018C459.171 295.979 346.625 331.646 346.625 331.646Z" fill="#C4C4C4"/>
<path fill-rule="evenodd" clip-rule="evenodd" d="M505.986 357.733C508.106 364.807 514.978 379.486 508.439 405.773C520.84 424.887 515.056 438.369 486.681 441.75C481.907 435.941 477.111 432.116 471.782 423.723C470.062 416.162 470.206 404.542 470.062 401.405C469.762 395.041 482.706 366.891 480.386 355.582C478.044 344.262 503.854 350.66 505.986 357.733Z" fill="#EF6A75"/>
<path d="M510.46 432.836C507.74 429.776 504.598 426.206 502.544 422.67" stroke="#CB5D66" stroke-width="2" stroke-linecap="round" stroke-linejoin="round"/>
<path d="M498.193 439.478C493.53 434.976 486.703 425.464 483.217 419.776" stroke="#CB5D66" stroke-width="2" stroke-linecap="round" stroke-linejoin="round"/>
<path fill-rule="evenodd" clip-rule="evenodd" d="M270.07 329.728C264.164 334.495 258.047 340.172 250.165 343.143C238.398 345.992 216.828 369.563 216.828 374.652C216.828 379.464 221.135 381.083 223.799 381.26C226.108 381.404 231.037 376.082 232.281 374.552C230.138 379.431 228.895 386.038 231.271 388.112C233.646 390.185 237.054 390.906 239.386 388.223C243.227 383.799 242.272 378.754 242.627 375.805C244.515 372.191 249.655 364.175 251.83 363.21C253.362 363.277 255.649 363.82 256.082 366.237C256.515 368.665 250.865 374.087 250.221 376.359C250.265 379.231 253.362 382.868 256.071 382.158C259.168 381.338 268.705 372.08 270.814 369.552C273.656 366.148 274.944 358.731 276.453 356.214C277.963 353.698 283.88 348.476 284.979 347.378C286.089 346.292 275.965 324.96 270.07 329.728Z" fill="#EF6A75"/>
<path d="M254.772 364.108C247.778 358.31 236.865 370.184 231.914 374.974" stroke="#CB5D66" stroke-width="2" stroke-linecap="round" stroke-linejoin="round"/>
<path fill-rule="evenodd" clip-rule="evenodd" d="M361.757 139.674C338.888 161.493 327.686 216.219 321.603 251.364C301.542 271.077 261.156 314.727 261.178 325.215C261.211 335.703 280.927 353.176 285.945 353.054C290.974 352.932 337.644 301.91 344.938 295.934C352.243 289.958 367.207 134.474 361.757 139.674Z" fill="#F7D167"/>
<path fill-rule="evenodd" clip-rule="evenodd" d="M353.297 49.8915C350.222 47.1309 345.004 46.0554 345.004 30.8773C345.004 14.7014 364.332 0 388.922 0C427.554 0 438.778 33.8375 440.11 45.8004C441.442 57.7633 439.344 86.0684 441.986 97.5767C447.382 121.103 470.051 139.264 470.051 178.578C470.051 190.53 418.14 180.175 408.838 178.789C399.546 177.403 388.755 115.848 388.755 115.848C388.755 115.848 356.372 52.6522 353.297 49.8915Z" fill="black"/>
<path fill-rule="evenodd" clip-rule="evenodd" d="M412.301 86.0682C410.447 93.5408 410.192 125.505 411.557 136.17C405.263 140.683 381.839 140.162 376.954 135.283C378.442 122.112 378.442 110.382 376.954 104.683C375.466 98.9846 414.155 78.5956 412.301 86.0682Z" fill="#EF6A75"/>
<path fill-rule="evenodd" clip-rule="evenodd" d="M343.184 62.6193C343.184 37.0416 361.734 16.2979 384.603 16.2979C407.472 16.2979 426.022 37.0416 426.022 62.6193C426.022 88.2081 407.483 108.941 384.603 108.941C361.723 108.941 343.184 88.1971 343.184 62.6193Z" fill="#EF6A75"/>
<path fill-rule="evenodd" clip-rule="evenodd" d="M392.763 106.502C392.152 98.5857 385.635 81.3898 382.238 79.3387C378.841 77.2876 352.176 74.1389 343.206 60.8345C338.654 64.5819 334.924 71.5667 335.29 73.0634C336.034 76.0569 343.172 81.157 343.172 81.157C343.172 81.157 344.782 100.426 358.737 109.019C368.817 115.216 388.699 110.127 392.763 106.502Z" fill="white"/>
<path d="M381.361 81.9106C386.013 74.1386 398.469 63.994 405.107 61.1558" stroke="white" stroke-width="2" stroke-linecap="round" stroke-linejoin="round"/>
<path d="M387.479 93.4745C387.479 93.4745 413.844 97.488 418.118 86.0684" stroke="white" stroke-width="2" stroke-linecap="round" stroke-linejoin="round"/>
<path fill-rule="evenodd" clip-rule="evenodd" d="M361.934 19.2029C367.363 24.1034 369.761 36.3434 374.723 42.5189C382.771 52.5415 398.247 54.2046 403.009 67.3538C407.772 80.503 432.694 69.8816 432.694 69.8816L429.497 38.6052L411.047 19.2805L382.327 11.1094C382.327 11.0983 356.505 14.2914 361.934 19.2029Z" fill="black"/>
<path fill-rule="evenodd" clip-rule="evenodd" d="M395.893 74.1387C395.893 65.4021 402.987 58.3286 411.724 58.3286C420.472 58.3286 427.554 65.4132 427.554 74.1387C427.554 82.8752 420.46 89.9487 411.724 89.9487C402.987 89.9487 395.893 82.8641 395.893 74.1387Z" fill="#EF6A75"/>
<path fill-rule="evenodd" clip-rule="evenodd" d="M361.19 59.404C361.19 56.1998 362.6 53.6055 364.343 53.6055C366.086 53.6055 367.496 56.1998 367.496 59.404C367.496 62.6081 366.086 65.2025 364.343 65.2025C362.6 65.2025 361.19 62.6081 361.19 59.404Z" fill="#90415B"/>
<path fill-rule="evenodd" clip-rule="evenodd" d="M394.661 118.842C462.635 118.842 509.993 247.562 514.922 267.086C519.851 286.61 516.077 357.811 514.267 363.221C507.529 364.53 483.206 360.073 478.132 357.035C473.725 349.629 472.06 293.495 470.25 288.406C468.441 283.317 467.453 281.355 463.678 276.92C465.654 292.01 463.512 329.085 462.202 334.506C460.892 339.917 355.384 339.662 347.38 336.313C342.362 334.218 338.821 332.034 338.11 326.978C336.945 318.641 340.386 313.108 339.465 306.146C338.543 299.183 334.635 298.096 333.448 286.732C332.204 274.847 340.242 259.048 337.611 247.285C323.701 185.231 357.027 118.842 394.661 118.842Z" fill="#F7D167"/>
<path fill-rule="evenodd" clip-rule="evenodd" d="M380.04 118.42H409.237C410.958 118.42 412.368 120.394 412.368 122.822V134.862C412.368 137.29 410.969 139.264 409.237 139.264H380.04C378.32 139.264 376.91 137.29 376.91 134.862V122.822C376.91 120.394 378.308 118.42 380.04 118.42Z" fill="#F7D167"/>
<path d="M266.151 710.422L375.611 349.096" stroke="#8D8D8D" stroke-width="2" stroke-linecap="round" stroke-linejoin="round"/>
<path d="M312.833 708.293L260.667 682.483" stroke="#8D8D8D" stroke-width="2" stroke-linecap="round" stroke-linejoin="round"/>
<path d="M370.86 515.069C365.564 518.129 354.307 516.51 348.823 512.885" stroke="#8D8D8D" stroke-width="2" stroke-linecap="round" stroke-linejoin="round"/>
<path d="M356.316 483.914L379.485 505.722" stroke="#8D8D8D" stroke-width="2" stroke-linecap="round" stroke-linejoin="round"/>
<path d="M388.921 519.06C394.106 507.618 398.047 499.869 400.067 497.673C422.592 473.315 457.639 392.535 462.424 348.343" stroke="#8D8D8D" stroke-width="2" stroke-linecap="round" stroke-linejoin="round"/>
<path d="M575.614 665.863C575.614 665.863 426.289 523.506 419.351 517.929C418.906 507.94 418.251 488.515 411.324 482.54" stroke="#8D8D8D" stroke-width="2" stroke-linecap="round" stroke-linejoin="round"/>
<path d="M469.673 489.225C464.888 492.507 456.707 504.17 456.174 510.922" stroke="#8D8D8D" stroke-width="2" stroke-linecap="round" stroke-linejoin="round"/>
<path d="M464.278 484.724C461.603 485.478 453.876 489.868 451.9 493.427" stroke="#8D8D8D" stroke-width="2" stroke-linecap="round" stroke-linejoin="round"/>
<path d="M464.467 478.349L454.775 477.628L438.678 471.575" stroke="#8D8D8D" stroke-width="2" stroke-linecap="round" stroke-linejoin="round"/>
<path d="M464.134 478.327L455.264 477.661" stroke="#8D8D8D" stroke-width="2" stroke-linecap="round" stroke-linejoin="round"/>
<path d="M591.767 618.211L539.756 666.528" stroke="#8D8D8D" stroke-width="2" stroke-linecap="round" stroke-linejoin="round"/>
<path d="M339.653 360.117C339.653 360.117 378.308 367.113 402.199 363.842" stroke="#8D8D8D" stroke-width="2" stroke-linecap="round" stroke-linejoin="round"/>
<path d="M344.183 338.143C340.886 336.38 338.643 334.185 338.099 330.282C336.934 321.945 340.375 316.412 339.454 309.449C338.532 302.487 334.625 301.4 333.437 290.036C332.194 278.151 340.231 262.352 337.6 250.589C332.404 227.372 333.803 203.558 339.576 182.836" stroke="#FF3274" stroke-width="2" stroke-linecap="round" stroke-linejoin="round"/>
<path d="M297.446 343.786C293.383 341.469 272.557 322.521 267.561 312.343" stroke="#FF3274" stroke-width="2" stroke-linecap="round" stroke-linejoin="round"/>
<path d="M291.995 339.517L281.227 351.059" stroke="#FF3274" stroke-width="2" stroke-linecap="round" stroke-linejoin="round"/>
<path d="M285.068 334.184L274.299 345.726" stroke="#FF3274" stroke-width="2" stroke-linecap="round" stroke-linejoin="round"/>
<path d="M278.341 327.976L268.161 338.885" stroke="#FF3274" stroke-width="2" stroke-linecap="round" stroke-linejoin="round"/>
<path d="M272.956 320.936L263.042 331.568" stroke="#FF3274" stroke-width="2" stroke-linecap="round" stroke-linejoin="round"/>
<path d="M516.011 349.019L474.98 344.562" stroke="#FF3274" stroke-width="2" stroke-linecap="round" stroke-linejoin="round"/>
<path d="M509.228 348.287L508.14 366.669" stroke="#FF3274" stroke-width="2" stroke-linecap="round" stroke-linejoin="round"/>
<path d="M498.959 347.167L497.382 365.372" stroke="#FF3274" stroke-width="2" stroke-linecap="round" stroke-linejoin="round"/>
<path d="M488.856 346.07L487.668 363.454" stroke="#FF3274" stroke-width="2" stroke-linecap="round" stroke-linejoin="round"/>
<path d="M518.231 301.5C503.666 301.5 491.865 289.715 491.865 275.168C491.865 264.17 498.614 254.746 508.217 250.81" stroke="#FF3274" stroke-width="2" stroke-linecap="round" stroke-linejoin="round"/>
<path d="M463.679 280.246C460.037 274.281 417.652 207.493 415.454 204.81" stroke="#FF3274" stroke-width="2" stroke-linecap="round" stroke-linejoin="round"/>
<path d="M405.84 205.176L415.498 204.6" stroke="#FF3274" stroke-width="2" stroke-linecap="round" stroke-linejoin="round"/>
<path d="M407.25 215.886L415.421 204.611" stroke="#FF3274" stroke-width="2" stroke-linecap="round" stroke-linejoin="round"/>
<path d="M414.088 221.684L415.343 204.732" stroke="#FF3274" stroke-width="2" stroke-linecap="round" stroke-linejoin="round"/>
<path d="M358.537 309.349L388.344 294.814" stroke="#FF3274" stroke-width="2" stroke-linecap="round" stroke-linejoin="round"/>
<path d="M387.834 290.879L348.535 298.762" stroke="#FF3274" stroke-width="2" stroke-linecap="round" stroke-linejoin="round"/>
<path d="M353.419 292.797L386.291 271.166" stroke="#FF3274" stroke-width="2" stroke-linecap="round" stroke-linejoin="round"/>
<path d="M395.283 139.264H380.03C378.309 139.264 376.899 137.29 376.899 134.862V122.822C376.899 120.394 378.298 118.42 380.03 118.42H409.226C410.17 118.42 411.025 119.019 411.602 119.95" stroke="#FF3274" stroke-width="2" stroke-linecap="round" stroke-linejoin="round"/>
<path d="M384.592 118.42L384.792 139.264" stroke="#FF3274" stroke-width="2" stroke-linecap="round" stroke-linejoin="round"/>
<path d="M393.229 118.708L393.329 128.842L393.429 139.552" stroke="#FF3274" stroke-width="2" stroke-linecap="round" stroke-linejoin="round"/>
<path d="M402.798 118.708L402.898 128.842L402.998 139.552" stroke="#FF3274" stroke-width="2" stroke-linecap="round" stroke-linejoin="round"/>
<path d="M272.235 780.813L176.929 738.139" stroke="white" stroke-width="2" stroke-linecap="round" stroke-linejoin="round"/>
<path d="M649.361 694.468L598.217 749.348L557.164 754.781" stroke="white" stroke-width="2" stroke-linecap="round" stroke-linejoin="round"/>
<path fill-rule="evenodd" clip-rule="evenodd" d="M151.373 96.3127C144.324 93.3414 145.212 76.6443 152.706 70.2471C160.199 63.8499 179.027 58.3286 186.421 38.3831C189.107 32.9615 197.133 40.8666 199.232 54.3151C200.397 86.3787 166.838 102.832 151.373 96.3127Z" fill="#AADAF1"/>
<path d="M184.9 57.73C183.778 64.8035 168.947 96.6897 138.962 104.805" stroke="#72A5BD" stroke-width="2" stroke-linecap="round" stroke-linejoin="round"/>
<path d="M343.206 60.8345C338.654 64.5819 334.924 71.5667 335.29 73.0634C336.034 76.0569 343.172 81.1569 343.172 81.1569C343.172 81.1569 344.782 100.426 358.737 109.019C363.632 112.034 370.848 112.378 377.443 111.524" stroke="#C9C9C9" stroke-width="2" stroke-linecap="round" stroke-linejoin="round"/>
<path d="M656.921 690.964C662.638 663.834 660.596 575.859 644.954 502.862" stroke="#72A5BD" stroke-width="2" stroke-linecap="round" stroke-linejoin="round"/>
</g>
</g>
<defs>
<clipPath id="clip0">
<rect width="732.177" height="792" fill="white"/>
</clipPath>
<clipPath id="clip1">
<rect x="137.852" width="594.325" height="792" fill="white"/>
</clipPath>
</defs>
</svg>
